<?xml version="1.0" standalone="no"?>
<!DOCTYPE svg PUBLIC "-//W3C//DTD SVG 20010904//EN"
 "http://www.w3.org/TR/2001/REC-SVG-20010904/DTD/svg10.dtd">
<svg version="1.0" xmlns="http://www.w3.org/2000/svg"
 width="2400.000000pt" height="2400.000000pt" viewBox="0 0 2400.000000 2400.000000"
 preserveAspectRatio="xMidYMid meet">

<g transform="translate(0.000000,2400.000000) scale(0.100000,-0.100000)"
fill="#000000" stroke="none">
<path d="M12125 20350 c-190 -22 -400 -107 -556 -226 -63 -48 -209 -200 -236
-244 -9 -17 -22 -30 -28 -30 -6 0 -34 16 -63 35 -162 110 -405 208 -592 241
-128 22 -341 15 -455 -16 -139 -37 -276 -111 -388 -210 -83 -73 -201 -237
-267 -370 -12 -25 -24 -47 -26 -49 -2 -2 -21 8 -42 22 -68 45 -220 117 -310
147 -237 78 -494 63 -832 -49 -590 -197 -879 -470 -880 -832 0 -60 22 -215 35
-250 4 -10 -23 -23 -97 -47 -320 -102 -581 -318 -698 -576 -40 -87 -76 -213
-91 -317 -6 -46 -13 -86 -15 -88 -2 -2 -38 28 -79 68 -222 211 -475 333 -660
318 -99 -8 -161 -30 -248 -86 -194 -127 -400 -397 -585 -768 -109 -217 -140
-337 -149 -568 -11 -300 48 -538 193 -787 l45 -77 -73 -73 c-206 -204 -378
-522 -428 -793 -8 -38 -14 -127 -14 -197 l-1 -128 -60 0 c-261 -1 -513 -86
-663 -225 -124 -115 -202 -243 -241 -396 -27 -104 -44 -297 -36 -399 25 -330
110 -549 288 -743 l35 -38 -54 -76 c-73 -102 -116 -194 -158 -339 -61 -212
-80 -339 -80 -519 1 -144 3 -169 27 -248 31 -101 95 -232 161 -331 25 -38 46
-69 46 -70 0 0 -43 -46 -96 -100 -146 -153 -236 -299 -269 -440 -19 -80 -19
-285 0 -373 62 -291 252 -580 495 -751 36 -25 69 -49 74 -53 4 -4 -5 -36 -22
-71 -142 -301 -169 -622 -81 -958 53 -201 198 -456 341 -601 68 -68 209 -174
285 -212 l31 -17 -77 -77 c-182 -184 -283 -376 -312 -588 -39 -297 72 -628
321 -955 112 -147 337 -337 525 -444 169 -96 387 -153 627 -163 l147 -6 7 -41
c27 -166 125 -363 295 -594 140 -190 427 -436 614 -527 173 -84 260 -106 447
-112 l157 -6 45 -91 c150 -300 439 -496 841 -569 98 -17 158 -21 330 -21 205
0 213 0 328 32 65 17 159 49 209 69 l92 38 106 -105 c255 -252 509 -374 940
-449 315 -55 714 -57 999 -5 46 8 84 14 85 12 1 -2 12 -30 25 -63 34 -84 80
-151 154 -222 207 -199 496 -285 884 -262 214 13 407 63 603 155 289 137 546
390 649 640 18 43 34 80 35 81 1 2 52 -8 112 -21 173 -39 291 -50 458 -43 479
20 896 169 1223 438 39 32 74 59 77 59 3 0 48 -31 98 -68 186 -138 361 -227
505 -257 143 -31 320 -15 459 41 259 103 595 427 736 709 90 180 120 302 127
525 l6 175 35 3 c90 8 291 56 426 103 373 129 638 325 781 578 98 173 136 296
155 499 8 79 16 121 22 118 70 -30 250 -80 330 -92 164 -25 283 -9 424 58 65
31 100 56 160 116 185 185 370 552 428 847 25 125 24 394 -1 525 -51 272 -177
507 -388 726 l-49 52 71 88 c207 255 333 500 445 859 107 344 98 557 -34 803
-117 217 -378 479 -645 648 -41 26 -74 48 -72 50 1 1 65 7 142 14 406 35 606
164 735 473 77 184 105 370 97 635 -8 255 -52 436 -158 648 -92 184 -258 373
-435 493 -43 30 -81 56 -83 58 -2 1 61 69 140 150 186 190 272 319 358 535 56
142 66 211 66 453 -1 290 -29 440 -129 679 -101 241 -218 387 -475 596 l-43
35 61 85 c255 351 279 727 66 1025 -97 137 -332 323 -513 407 -152 70 -237 90
-412 95 -177 6 -305 -9 -513 -58 -71 -17 -130 -29 -133 -27 -2 3 -15 43 -29
90 -70 243 -255 596 -392 748 -146 163 -391 293 -632 335 -46 8 -105 15 -131
15 l-47 0 -7 118 c-14 228 -55 383 -147 563 -154 299 -384 489 -738 608 -188
63 -272 75 -521 76 -216 0 -229 -1 -335 -29 -184 -48 -331 -113 -475 -211
l-82 -56 -116 113 c-191 185 -377 314 -617 429 -212 100 -339 132 -530 132
-111 0 -144 -4 -225 -27 -52 -15 -104 -29 -116 -32 -16 -5 -24 1 -34 26 -7 18
-30 57 -50 88 -122 188 -320 311 -556 347 -124 19 -340 26 -439 15z m-169
-6668 c53 -50 188 -252 264 -393 34 -62 65 -117 69 -121 4 -5 27 40 50 100 84
207 196 408 241 432 30 16 65 12 85 -10 37 -41 0 -255 -75 -434 -17 -39 -28
-71 -26 -73 1 -2 29 6 62 18 97 33 283 79 323 79 144 0 263 -150 206 -259 -27
-54 -139 -89 -394 -126 -63 -9 -127 -21 -142 -28 l-29 -12 31 -44 c60 -90 73
-202 31 -275 -56 -98 -221 -79 -315 37 -69 84 -137 201 -137 235 0 38 -10 39
-85 13 l-50 -18 3 -55 c9 -141 -87 -177 -353 -133 -60 10 -140 15 -200 14 -94
-3 -103 -5 -145 -35 -62 -43 -111 -59 -281 -90 -168 -31 -178 -37 -227 -136
-59 -121 -154 -204 -254 -222 l-38 -7 0 -79 0 -79 69 48 c67 46 111 64 236 97
104 27 127 28 157 4 29 -22 44 -73 35 -112 -13 -49 -107 -177 -160 -217 -61
-47 -97 -63 -187 -86 -36 -8 -71 -18 -78 -20 -9 -4 -7 -15 9 -47 34 -66 38
-188 9 -256 -38 -89 -121 -137 -200 -116 l-38 11 -4 -101 c-3 -60 -12 -122
-22 -151 -31 -88 -98 -215 -119 -226 -34 -19 -138 -7 -176 20 -107 76 -151
250 -101 396 21 61 84 180 100 190 6 3 10 10 10 14 0 4 -48 -12 -107 -35 -117
-47 -152 -52 -210 -29 -83 34 -110 142 -55 223 64 96 167 140 352 149 l115 6
-115 32 c-218 60 -327 111 -389 181 -79 90 -82 202 -6 262 34 27 88 35 155 22
73 -13 257 -105 348 -174 l72 -55 0 105 c0 129 21 229 60 282 l29 40 -119 3
c-113 4 -120 5 -161 34 -91 64 -108 129 -53 207 46 66 118 92 256 93 60 0 108
1 108 2 0 1 -11 18 -24 37 -31 46 -92 191 -111 266 -38 148 -4 209 116 202 56
-4 191 -164 290 -346 l27 -49 11 39 c5 21 17 68 26 104 22 88 82 230 108 259
73 80 147 102 192 57 20 -20 45 -81 45 -111 0 -6 17 -19 37 -30 20 -11 59 -37
85 -57 26 -21 49 -38 51 -38 3 0 -2 30 -10 68 -9 37 -16 123 -17 192 -1 143
14 202 65 245 64 53 136 21 184 -81 27 -57 65 -227 65 -289 0 -19 3 -35 8 -35
4 1 30 33 57 72 45 64 133 148 155 148 5 0 20 4 34 9 24 10 24 10 10 58 -9 28
-14 72 -12 106 4 46 10 63 33 87 43 44 90 42 141 -8z m1812 -798 c89 -62 90
-279 2 -441 -27 -51 -27 -70 1 -36 32 38 199 158 263 189 127 61 190 54 223
-24 32 -77 -13 -196 -108 -287 -63 -60 -212 -139 -334 -178 l-70 -22 185 -6
c225 -8 270 -20 341 -88 42 -40 49 -53 49 -85 0 -50 -24 -89 -72 -116 -32 -18
-37 -25 -32 -45 18 -72 -50 -200 -173 -326 l-74 -76 69 -6 c99 -10 248 -50
322 -87 68 -34 153 -108 176 -152 21 -40 18 -117 -6 -156 -27 -43 -97 -75
-145 -66 l-35 6 16 -38 c35 -83 -21 -154 -153 -198 -81 -27 -258 -55 -346 -56
-60 0 -53 -15 10 -25 143 -20 292 -148 374 -320 50 -104 31 -173 -53 -195 -51
-14 -106 -5 -183 28 -103 45 -175 92 -250 163 l-73 69 2 -182 c1 -173 0 -186
-23 -236 -32 -70 -70 -102 -125 -102 -35 0 -48 6 -73 33 -17 17 -38 46 -47 64
-50 99 -30 377 35 506 11 21 19 41 17 43 -2 1 -40 -3 -83 -11 -44 -8 -129 -14
-189 -15 -129 0 -181 18 -217 77 -27 43 -28 109 -4 146 45 69 202 95 350 58
44 -11 82 -18 84 -16 2 2 -6 16 -17 32 -11 15 -38 64 -61 108 -35 69 -41 89
-41 144 0 60 2 65 39 102 35 36 43 39 92 39 72 -1 128 -27 195 -94 39 -39 56
-51 60 -41 8 21 -47 96 -122 163 -84 76 -84 94 1 139 33 17 60 38 60 45 0 7
-21 23 -46 35 -25 12 -61 39 -78 59 -30 33 -32 42 -29 88 3 28 7 58 11 66 5
11 -2 21 -24 34 -48 29 -69 85 -69 192 0 65 6 107 20 149 11 31 17 61 14 66
-14 23 -98 61 -154 70 -77 12 -128 37 -168 83 -34 38 -62 118 -62 174 0 27 -9
45 -41 79 -54 59 -72 104 -71 184 0 103 50 196 124 235 104 54 311 -53 385
-199 l25 -51 28 83 c34 100 86 188 130 219 39 26 114 30 148 6z m-3092 -1863
c17 -10 42 -36 55 -57 50 -80 20 -252 -66 -380 -25 -37 -44 -68 -43 -69 2 -2
33 -12 71 -24 78 -24 104 -36 135 -64 l22 -21 29 28 c34 33 97 44 141 26 91
-38 230 -291 230 -418 0 -19 4 -23 18 -17 157 61 290 80 367 51 26 -11 59 -34
80 -59 29 -34 35 -48 35 -88 0 -38 -5 -53 -29 -78 -40 -42 -125 -80 -200 -87
l-62 -7 24 -26 c96 -107 199 -412 183 -544 -10 -88 -65 -147 -137 -147 -26 0
-43 10 -84 53 -52 53 -92 121 -198 329 l-54 108 -12 -43 c-52 -172 -140 -342
-228 -438 -86 -92 -152 -101 -217 -29 -43 47 -50 74 -43 149 9 103 56 189 238
435 44 59 79 109 77 111 -5 4 -408 -34 -418 -40 -4 -3 -11 -17 -15 -32 -10
-42 -81 -159 -111 -182 -16 -13 -41 -21 -64 -21 -53 0 -91 46 -127 152 -24 72
-27 98 -27 193 1 97 16 196 39 257 6 14 -5 11 -54 -13 -39 -20 -95 -36 -154
-46 -172 -28 -232 -43 -322 -83 -107 -48 -136 -50 -165 -12 -68 85 58 280 239
370 75 38 191 70 321 89 l55 8 -65 24 c-277 101 -487 334 -400 444 43 55 125
44 295 -38 123 -60 224 -122 273 -168 19 -18 35 -27 40 -21 5 5 14 44 21 87
28 175 92 292 186 341 40 21 83 20 121 -3z m2251 -678 c13 -9 28 -33 35 -55 8
-29 15 -37 27 -33 9 4 44 11 79 17 120 19 210 -19 252 -108 29 -58 24 -156 -9
-222 -47 -92 -156 -165 -265 -178 l-57 -7 55 -22 c94 -38 144 -73 171 -119 56
-95 13 -154 -125 -171 -102 -13 -369 43 -457 95 -18 11 -33 17 -33 15 0 -2 14
-46 30 -97 44 -135 100 -392 100 -460 0 -106 -41 -152 -125 -142 -75 10 -119
37 -180 112 -105 126 -139 234 -133 420 2 56 2 102 1 102 -1 0 -25 -24 -53
-54 -126 -133 -361 -158 -430 -44 -71 117 45 263 285 358 44 17 84 34 89 37 5
3 -36 27 -91 54 -102 49 -192 119 -218 170 -23 43 -19 120 8 159 33 51 79 73
146 72 92 -1 173 -40 349 -170 41 -29 75 -52 77 -50 2 2 26 37 53 78 65 99
119 159 186 205 90 62 175 76 233 38z"/>
<path d="M11905 13203 c-11 -21 -37 -59 -59 -86 l-38 -49 47 28 c32 18 68 30
109 33 l61 6 -50 52 -51 53 -19 -37z"/>
<path d="M11715 12969 c-44 -45 -74 -78 -67 -74 7 4 34 10 60 13 46 7 47 8 54
51 4 24 14 54 23 67 8 13 14 24 12 24 -1 0 -38 -37 -82 -81z"/>
<path d="M10941 12836 c-28 -51 -51 -96 -51 -99 0 -3 23 10 51 28 27 19 77 46
109 61 l60 27 -54 38 c-30 22 -57 39 -60 39 -2 0 -27 -42 -55 -94z"/>
<path d="M10110 10967 c0 -2 14 -16 31 -33 16 -16 28 -22 24 -14 -5 13 -55 56
-55 47z"/>
<path d="M13370 12397 c0 -8 9 -22 20 -32 24 -21 28 -1 6 28 -16 20 -26 22
-26 4z"/>
<path d="M13606 12035 c4 -8 11 -15 16 -15 6 0 5 6 -2 15 -7 8 -14 15 -16 15
-2 0 -1 -7 2 -15z"/>
<path d="M13664 11868 c3 -13 6 -64 6 -114 l0 -91 39 -12 c22 -6 62 -32 90
-57 29 -26 53 -45 54 -43 2 2 14 29 27 59 14 30 40 79 58 109 18 30 29 58 25
61 -4 4 -37 13 -72 20 -35 7 -100 31 -143 52 -44 21 -82 38 -85 38 -3 0 -3
-10 1 -22z"/>
<path d="M13958 10878 c8 -8 17 -8 34 0 22 10 21 11 -11 11 -27 1 -32 -2 -23
-11z"/>
<path d="M10600 10020 l0 -30 69 0 c75 0 232 -24 263 -41 35 -19 38 -4 8 48
l-29 51 -38 -20 c-31 -16 -51 -19 -113 -15 -41 3 -94 12 -117 21 l-43 15 0
-29z"/>
</g>
</svg>
