<?xml version="1.0" standalone="no"?>
<!DOCTYPE svg PUBLIC "-//W3C//DTD SVG 20010904//EN"
 "http://www.w3.org/TR/2001/REC-SVG-20010904/DTD/svg10.dtd">
<svg version="1.0" xmlns="http://www.w3.org/2000/svg"
 width="700.000000pt" height="700.000000pt" viewBox="0 0 700.000000 700.000000"
 preserveAspectRatio="xMidYMid meet">
<metadata>
Created by potrace 1.11, written by Peter Selinger 2001-2013
</metadata>
<g transform="translate(0.000000,700.000000) scale(0.100000,-0.100000)"
fill="#000000" stroke="none">
<path d="M3471 5917 c-47 -15 -79 -35 -121 -73 l-56 -53 -30 18 c-107 65 -245
82 -332 40 -54 -26 -123 -94 -141 -138 l-13 -29 -47 23 c-114 58 -225 51 -386
-25 -125 -58 -177 -128 -169 -229 l4 -51 -62 -28 c-97 -44 -164 -118 -184
-202 -4 -19 -9 -38 -10 -42 -1 -5 -2 -13 -3 -19 0 -5 -16 4 -33 20 -49 45
-123 82 -167 83 -88 1 -175 -81 -253 -239 -42 -86 -43 -88 -43 -192 0 -98 2
-111 31 -171 l31 -65 -25 -25 c-31 -32 -84 -115 -102 -158 -7 -19 -16 -61 -19
-95 l-6 -61 -66 -12 c-80 -15 -114 -31 -155 -76 -53 -56 -68 -102 -66 -209 0
-76 16 -129 55 -187 l33 -49 -27 -49 c-16 -27 -35 -80 -42 -117 -20 -95 -13
-165 23 -238 l31 -60 -31 -32 c-55 -55 -74 -104 -74 -182 0 -89 38 -168 114
-239 l52 -49 -21 -53 c-24 -65 -24 -204 1 -273 24 -65 77 -136 131 -177 l48
-37 -30 -31 c-47 -50 -72 -103 -78 -171 -12 -130 71 -279 209 -373 60 -41 114
-60 192 -68 33 -3 63 -9 66 -12 3 -4 12 -25 19 -47 53 -157 237 -313 372 -316
51 -1 56 -4 68 -30 30 -68 140 -147 228 -164 66 -12 189 -6 243 13 l55 19 30
-29 c41 -40 111 -88 127 -88 8 0 18 -4 24 -9 35 -33 290 -57 402 -38 32 5 42
4 42 -6 0 -24 69 -95 113 -116 51 -24 84 -31 162 -32 157 -2 323 89 385 211
l21 41 47 -7 c153 -25 317 10 440 94 l60 40 48 -32 c147 -98 259 -84 390 49
85 87 122 171 124 280 0 30 2 31 70 47 91 22 186 69 237 118 48 48 90 130 99
198 l6 49 47 -14 c129 -39 220 5 293 142 55 104 70 207 47 316 -13 61 -37 106
-86 167 l-35 42 31 39 c71 89 132 241 137 341 3 44 -2 67 -26 116 -30 61 -109
148 -170 187 -37 23 -29 31 40 40 129 17 201 120 201 289 0 89 -14 154 -45
216 -25 48 -83 115 -124 144 l-24 16 57 67 c72 85 96 141 103 233 9 146 -35
271 -128 363 -53 51 -56 57 -43 75 59 78 78 196 43 263 -27 54 -98 119 -166
152 -51 25 -73 30 -135 31 -41 0 -96 -5 -122 -11 -53 -12 -67 -9 -67 17 0 25
-76 172 -108 208 -15 17 -45 42 -67 57 -41 27 -151 61 -166 51 -5 -3 -9 10
-10 28 -3 150 -90 279 -224 335 -71 30 -110 37 -196 35 -80 -2 -135 -17 -207
-57 l-45 -25 -43 40 c-53 49 -132 99 -201 128 -54 23 -130 30 -195 17 -32 -6
-39 -4 -44 11 -13 38 -96 99 -147 110 -70 15 -155 11 -216 -9z m37 -1954 c16
-21 40 -58 52 -81 l23 -44 34 69 c38 76 56 99 72 89 12 -8 7 -69 -9 -112 -13
-34 -8 -39 31 -25 52 18 96 14 113 -11 33 -47 12 -69 -79 -83 -76 -12 -75 -12
-58 -46 12 -24 13 -36 4 -55 -21 -46 -94 -19 -121 46 -16 38 -50 42 -50 5 0
-28 -30 -46 -65 -39 -42 9 -123 6 -143 -5 -11 -6 -43 -16 -71 -22 -44 -9 -56
-17 -81 -54 -16 -23 -40 -45 -54 -49 -17 -4 -24 -12 -23 -26 1 -11 2 -20 3
-20 0 0 15 7 32 16 50 25 100 30 108 10 12 -31 -49 -100 -97 -110 -25 -5 -28
-9 -21 -23 20 -39 -7 -103 -43 -103 -17 0 -25 -6 -26 -17 -5 -101 -58 -154
-103 -104 -27 30 -30 81 -7 124 17 33 17 37 3 33 -56 -17 -70 -17 -86 -1 -19
19 -20 34 -3 56 17 23 50 38 86 41 38 3 30 11 -28 27 -69 20 -111 77 -79 109
20 20 60 13 117 -18 30 -17 55 -30 56 -30 1 0 2 18 3 41 1 22 7 49 12 60 10
17 7 19 -25 19 -46 0 -80 32 -65 61 13 24 50 40 79 34 25 -5 25 0 6 55 -41
115 17 130 86 22 16 -25 29 -42 30 -36 6 79 62 151 95 123 8 -6 14 -16 14 -22
0 -10 29 -36 42 -37 4 0 4 15 1 34 -8 49 4 103 25 111 23 9 50 -27 58 -76 l7
-39 37 32 c31 27 38 40 39 71 1 29 5 37 20 37 11 0 33 -17 49 -37z m523 -240
c3 -17 1 -47 -6 -67 -13 -38 -9 -39 30 -6 33 27 69 39 88 28 41 -23 3 -93 -68
-127 -25 -12 -45 -23 -45 -25 0 -3 18 -4 40 -4 78 1 127 -37 95 -72 -9 -10
-18 -28 -20 -40 -3 -13 -18 -41 -35 -61 -16 -21 -30 -39 -30 -41 0 -2 12 -4
26 -5 49 -2 109 -32 127 -63 17 -28 17 -30 -3 -50 -11 -11 -24 -20 -29 -20 -5
0 -11 -10 -13 -22 -4 -32 -54 -54 -133 -58 l-30 -2 26 -8 c43 -13 74 -38 97
-78 18 -33 20 -42 8 -57 -18 -25 -69 -14 -118 25 -20 17 -38 30 -40 30 -2 0
-4 -26 -5 -57 -1 -47 -5 -61 -24 -76 -23 -18 -24 -18 -42 4 -14 17 -18 37 -16
78 1 31 6 64 11 73 8 16 2 17 -54 17 -64 -1 -92 15 -86 51 4 21 66 39 100 29
33 -9 32 -10 13 27 -39 74 1 115 68 71 33 -22 34 -18 2 19 -30 34 -30 40 -7
53 16 9 15 11 -6 27 -15 10 -22 24 -20 37 2 12 -3 27 -10 33 -13 10 -20 72
-11 103 3 9 -11 20 -38 31 -50 19 -61 28 -66 56 -1 12 -10 33 -20 47 -22 34
-22 69 2 99 27 34 71 27 110 -18 29 -32 30 -33 36 -11 14 46 35 68 63 65 21
-2 28 -10 33 -35z m-909 -520 c19 -22 15 -75 -7 -110 -9 -13 -15 -26 -13 -27
24 -15 64 -25 84 -20 34 9 68 -25 85 -81 12 -40 15 -42 37 -34 67 25 136 -6
112 -51 -6 -11 -24 -23 -41 -27 -16 -3 -29 -6 -29 -7 0 -1 10 -22 22 -47 24
-49 34 -126 20 -148 -20 -29 -58 -4 -92 60 l-32 61 -29 -58 c-46 -90 -76 -113
-107 -82 -27 27 -8 87 51 161 l30 38 -54 -2 c-52 -3 -61 -8 -101 -57 -10 -12
-24 -19 -32 -16 -22 9 -39 70 -34 124 l5 47 -49 -12 c-26 -7 -48 -11 -48 -9 0
2 -18 -3 -40 -12 -76 -31 -94 6 -32 65 25 24 56 41 91 50 l53 13 -39 19 c-50
23 -80 51 -92 82 -22 56 31 54 131 -4 l46 -27 11 44 c12 46 41 84 64 84 8 0
21 -8 29 -17z m655 -199 c4 -11 13 -13 35 -9 93 21 106 -102 14 -140 l-31 -13
27 -13 c30 -13 46 -45 30 -61 -16 -16 -89 -13 -153 7 -17 6 -20 4 -15 -12 28
-93 33 -168 11 -177 -45 -17 -103 50 -109 126 -2 24 -4 44 -5 46 -1 2 -13 -6
-27 -17 -31 -24 -86 -28 -104 -6 -22 27 -3 63 51 94 l52 29 -31 16 c-61 32
-78 68 -46 100 20 21 53 14 114 -23 46 -28 49 -29 55 -11 9 29 73 80 101 80
13 0 27 -7 31 -16z"/>
<path d="M3461 3838 c-11 -18 -11 -20 4 -14 9 3 21 6 26 6 14 0 11 17 -4 23
-7 3 -19 -4 -26 -15z"/>
<path d="M3415 3780 c-10 -11 -13 -20 -7 -20 6 0 16 9 22 20 6 11 9 20 7 20
-2 0 -12 -9 -22 -20z"/>
<path d="M3192 3745 c-13 -28 -6 -31 22 -10 10 7 15 18 11 24 -10 17 -21 13
-33 -14z"/>
<path d="M3989 3458 c-10 -34 -6 -43 28 -71 21 -19 22 -18 38 13 9 18 15 33
13 34 -23 15 -77 31 -79 24z"/>
<path d="M3098 2919 c14 -13 101 -17 96 -5 -2 6 -26 11 -54 11 -27 0 -46 -3
-42 -6z"/>
</g>
</svg>
