<svg xmlns="http://www.w3.org/2000/svg" xmlns:xlink="http://www.w3.org/1999/xlink" xmlns:lucid="lucid" width="1227" height="1364"><g transform="translate(-122 -27)" lucid:page-tab-id="gHjjwlkrc_Jt"><path d="M845.88 972.4c0 36-37.14 65.2-82.96 65.2-45.83 0-82.97-29.2-82.97-65.2s37.14-65.18 82.97-65.18c45.82 0 82.96 29.18 82.96 65.18z" stroke="#000" stroke-opacity="0" fill="#323580"/><use xlink:href="#a" transform="matrix(1,0,0,1,684.9491721201545,912.2164948453609) translate(48.63888888888889 65.15625)"/><path d="M536.77 1294.1c0 31.45-32.46 56.96-72.5 56.96-40.05 0-72.52-25.5-72.52-56.97 0-31.48 32.47-57 72.5-57 40.06 0 72.52 25.52 72.52 57z" stroke="#000" stroke-opacity="0" fill="#4247a8"/><use xlink:href="#b" transform="matrix(1,0,0,1,396.75257731958766,1242.1134020618558) translate(9.753086419753075 56.47222222222222)"/><use xlink:href="#c" transform="matrix(1,0,0,1,396.75257731958766,1242.1134020618558) translate(66.98765432098764 56.47222222222222)"/><path d="M1031.45 531.6c0 31.47-32.47 56.98-72.5 56.98-40.06 0-72.52-25.5-72.52-56.97 0-31.46 32.46-56.96 72.5-56.96 40.05 0 72.52 25.5 72.52 56.97z" stroke="#000" stroke-opacity="0" fill="#5358d3"/><use xlink:href="#d" transform="matrix(1,0,0,1,891.4270268173351,479.6352265199533) translate(7.801296296296288 43.47222222222222)"/><use xlink:href="#e" transform="matrix(1,0,0,1,891.4270268173351,479.6352265199533) translate(48.245740740740736 43.47222222222222)"/><use xlink:href="#f" transform="matrix(1,0,0,1,891.4270268173351,479.6352265199533) translate(72.9370987654321 43.47222222222222)"/><use xlink:href="#g" transform="matrix(1,0,0,1,891.4270268173351,479.6352265199533) translate(36.913580246913575 64.80555555555556)"/><path d="M660.32 531.6c0 31.47-32.47 56.98-72.52 56.98-40.04 0-72.5-25.5-72.5-56.97 0-31.46 32.46-56.96 72.5-56.96 40.05 0 72.52 25.5 72.52 56.97z" stroke="#000" stroke-opacity="0" fill="#636aff"/><use xlink:href="#d" transform="matrix(1,0,0,1,520.2930061987784,479.6352265199533) translate(7.801296296296288 43.47222222222222)"/><use xlink:href="#e" transform="matrix(1,0,0,1,520.2930061987784,479.6352265199533) translate(48.245740740740736 43.47222222222222)"/><use xlink:href="#h" transform="matrix(1,0,0,1,520.2930061987784,479.6352265199533) translate(72.9370987654321 43.47222222222222)"/><use xlink:href="#i" transform="matrix(1,0,0,1,520.2930061987784,479.6352265199533) translate(35.48148148148148 64.80555555555556)"/><path d="M845.88 304.8c0 31.47-32.46 56.98-72.5 56.98-40.06 0-72.52-25.5-72.52-56.98 0-31.46 32.46-56.97 72.5-56.97 40.06 0 72.52 25.5 72.52 56.97z" stroke="#000" stroke-opacity="0" fill="#8b90ff"/><use xlink:href="#j" transform="matrix(1,0,0,1,705.8600165080567,252.83110280861302) translate(3.9259259259259096 56.47222222222222)"/><use xlink:href="#k" transform="matrix(1,0,0,1,705.8600165080567,252.83110280861302) translate(64.12345679012344 56.47222222222222)"/><path d="M274.18 75c0-4.42 3.58-8 8-8h836.75c4.42 0 8 3.58 8 8v25.16c0 4.4-3.58 8-8 8H282.18c-4.42 0-8-3.6-8-8z" stroke="#000" stroke-opacity="0" stroke-width="2" fill="#fff" fill-opacity="0"/><use xlink:href="#l" transform="matrix(1,0,0,1,278.1774806203948,71) translate(223.06123456790124 25.782777777777778)"/><use xlink:href="#m" transform="matrix(1,0,0,1,278.1774806203948,71) translate(336.3995061728395 25.782777777777778)"/><use xlink:href="#n" transform="matrix(1,0,0,1,278.1774806203948,71) translate(374.2032098765432 25.782777777777778)"/><use xlink:href="#o" transform="matrix(1,0,0,1,278.1774806203948,71) translate(480.33037037037036 25.782777777777778)"/><use xlink:href="#p" transform="matrix(1,0,0,1,278.1774806203948,71) translate(496.28222222222223 25.782777777777778)"/><path d="M431.22 106.8h551.74M431.24 106.8h-1.02M982.94 106.8h1.02" stroke="#a9afb8" stroke-width="2" fill="none"/><path d="M274.18 116.16c0-4.42 3.58-8 8-8h837.7c4.42 0 8 3.58 8 8V119c0 4.42-3.58 8-8 8h-837.7c-4.42 0-8-3.58-8-8z" stroke="#000" stroke-opacity="0" stroke-width="2" fill="#fff" fill-opacity="0"/><use xlink:href="#q" transform="matrix(1,0,0,1,278.1774806203953,112.15522395689881) translate(245.83494855967083 14.917037037037037)"/><use xlink:href="#r" transform="matrix(1,0,0,1,278.1774806203953,112.15522395689881) translate(250.08391975308646 14.917037037037037)"/><use xlink:href="#s" transform="matrix(1,0,0,1,278.1774806203953,112.15522395689881) translate(308.5497633744856 14.917037037037037)"/><use xlink:href="#t" transform="matrix(1,0,0,1,278.1774806203953,112.15522395689881) translate(355.16097736625517 14.917037037037037)"/><use xlink:href="#u" transform="matrix(1,0,0,1,278.1774806203953,112.15522395689881) translate(363.36149176954734 14.917037037037037)"/><use xlink:href="#v" transform="matrix(1,0,0,1,278.1774806203953,112.15522395689881) translate(415.1139609053498 14.917037037037037)"/><use xlink:href="#w" transform="matrix(1,0,0,1,278.1774806203953,112.15522395689881) translate(455.9040843621399 14.917037037037037)"/><use xlink:href="#x" transform="matrix(1,0,0,1,278.1774806203953,112.15522395689881) translate(468.35356995884774 14.917037037037037)"/><use xlink:href="#y" transform="matrix(1,0,0,1,278.1774806203953,112.15522395689881) translate(547.2994547325103 14.917037037037037)"/><use xlink:href="#z" transform="matrix(1,0,0,1,278.1774806203953,112.15522395689881) translate(572.7932818930041 14.917037037037037)"/><path d="M633.93 422.5l-6.42 2.36-4.88 2.04-3.96 1.86-3.32 1.72-2.84 1.64-2.48 1.57-2.2 1.5-1.95 1.5-1.76 1.44-1.6 1.43-1.45 1.43-1.34 1.42-1.22 1.42-1.13 1.43-1.06 1.45-1 1.47-.9 1.48-.84 1.53-.78 1.58-.72 1.62-.67 1.68-.62 1.74-.24.8-.96-.3.25-.8.63-1.8.68-1.7.74-1.67.8-1.6.86-1.57.93-1.53 1-1.5 1.08-1.48 1.16-1.47 1.27-1.45 1.37-1.45 1.5-1.46 1.62-1.46 1.8-1.48 1.98-1.5 2.23-1.55 2.5-1.6 2.9-1.64 3.35-1.74 4-1.87 4.93-2.07 6.47-2.4 7.54-2.17h3.6zm113.26-64.05l-.76 2.13-1 2.5-1.06 2.38-1.14 2.3-1.22 2.2-1.3 2.16-1.4 2.08-1.48 2.04-1.58 2-1.7 1.96-1.83 1.95-1.98 1.92-2.13 1.92-2.33 1.9-2.57 1.94-2.82 1.96-3.13 2-3.55 2.03-3.72 1.93h-2.32l1.53-.7 4.04-2.1 3.5-2.03 3.12-1.97 2.8-1.93 2.5-1.9 2.3-1.9 2.1-1.9 1.95-1.88 1.8-1.92 1.7-1.93 1.55-1.96 1.46-2 1.38-2.06 1.28-2.1 1.2-2.2 1.12-2.24 1.05-2.35.97-2.47.74-2.1z" fill="#333"/><path d="M747.36 357.96l-.18.5-.94-.33.17-.47zM594.6 459.55l-6.57 13.48-2.62-14.77z" fill="#333"/><path d="M595.34 459.15l-7.54 15.5-3-16.98zm-7.1 12.28l5.6-11.48-7.82-1.1z" fill="#333"/><use xlink:href="#A" transform="matrix(1,0,0,1,627.0120208986596,397.76257545143676) translate(0.005000000000002558 14.4)"/><use xlink:href="#B" transform="matrix(1,0,0,1,627.0120208986596,397.76257545143676) translate(49.85500000000001 14.4)"/><path d="M910.84 416.92l5.9 3.27 4.56 2.76 3.72 2.5 3.18 2.3 2.75 2.2 2.45 2.13 2.2 2.06 1.97 2.03 1.8 2 1.66 2.03 1.53 2.02 1.4 2.05 1.32 2.08 1.22 2.12 1.13 2.18 1.05 2.25.97 2.33.9 2.44.3.92-.96.3-.3-.9-.88-2.4-.96-2.28-1.03-2.2-1.1-2.16-1.2-2.08-1.3-2.05-1.38-2-1.5-2-1.64-2-1.76-1.97-1.96-2-2.15-2.05-2.4-2.1-2.74-2.17-3.15-2.3-3.7-2.46-4.5-2.74-5.87-3.25-21.97-10.2h2.38zm-93.8-62.4l1.94 3.1 2.08 3.02 2.2 2.93 2.36 2.87 2.53 2.82 2.73 2.8 2.95 2.8 3.24 2.82 3.6 2.86 4.03 2.95 3.75 2.5h-1.8l-2.53-1.7-4.06-2.97-3.63-2.9-3.27-2.83-3-2.82-2.74-2.83-2.56-2.86-2.38-2.9-2.24-2.97-2.1-3.05-1.97-3.13-1.6-2.82.85-.5z" fill="#333"/><path d="M815.43 351.75l-.87.5-.26-.46.88-.5zM953.26 473.2l-7.35-13.06 9.1-1.83z" fill="#333"/><path d="M953.58 474.8l-8.44-15.02 10.43-2.1zm-6.9-14.3l6.26 11.13 1.48-12.7z" fill="#333"/><use xlink:href="#C" transform="matrix(1,0,0,1,803.3461688651315,385.99368695248455) translate(0.005000000000002558 14.4)"/><use xlink:href="#D" transform="matrix(1,0,0,1,803.3461688651315,385.99368695248455) translate(56.855000000000004 14.4)"/><use xlink:href="#E" transform="matrix(1,0,0,1,803.3461688651315,385.99368695248455) translate(71.85499999999999 14.4)"/><path d="M568.54 1182.55l-14.4 1.15-27.73 2.18-9.56 1.22-6.65 1.13-5.14 1.1-4.18 1.1-3.5 1.06-3.03 1.04-2.63 1.05-2.34 1.04-2.1 1.05-1.88 1.03-1.72 1.05-1.57 1.05-1.45 1.06-1.35 1.07-1.25 1.08-1.17 1.1-1.1 1.14-1.04 1.15-.98 1.18-.92 1.23-.88 1.26-.82 1.32-.8 1.36-.73 1.44-.7 1.5-.66 1.58-.6 1.68-.6 1.8-.33 1.23-.96-.27.35-1.25.58-1.82.63-1.72.7-1.63.7-1.54.77-1.48.8-1.4.86-1.35.9-1.3.95-1.25 1-1.22 1.06-1.2 1.13-1.15 1.2-1.14 1.3-1.1 1.37-1.1 1.5-1.1 1.6-1.07 1.76-1.07 1.93-1.06 2.12-1.06 2.38-1.07 2.67-1.06 3.06-1.06 3.55-1.1 4.23-1.08 5.17-1.1 6.7-1.15 9.6-1.2 27.77-2.2 14.47-1.15zm162.5-149.44l-7.54 20.36-6.9 16.5-6.4 13.62-6 11.5-5.7 9.9-5.44 8.6-5.23 7.54-5.05 6.68-4.9 5.93-4.77 5.3-4.66 4.8-4.58 4.3-4.5 3.9-4.46 3.53-4.4 3.2-4.4 2.94-1.8 1.1h-1.94l3.2-1.95 4.36-2.9 4.38-3.2 4.42-3.5 4.47-3.87 4.54-4.27 4.64-4.74 4.74-5.28 4.88-5.9 5.02-6.64 5.2-7.5 5.43-8.57 5.67-9.86 6-11.47 6.36-13.58 6.9-16.46 7.5-20.34z" fill="#333"/><path d="M731.2 1032.63l-.18.5-.94-.35.18-.48zM470.77 1221.9l-6.3 13.6-2.9-14.7z" fill="#333"/><path d="M471.52 1221.5l-7.26 15.6-3.3-16.9zm-6.87 12.4l5.38-11.58-7.84-.95z" fill="#333"/><use xlink:href="#F" transform="matrix(1,0,0,1,568.5379571844062,1162.7923478963296) translate(0.005000000000002558 14.4)"/><use xlink:href="#G" transform="matrix(1,0,0,1,568.5379571844062,1162.7923478963296) translate(36.955000000000005 14.4)"/><path d="M475.32 924.24l3.34 5.35 4.25 5.42 5.4 5.53 6.82 5.66 8.75 5.8 11.33 5.87 14.98 5.8 20.25 5.46 28.14 4.42 40.5 1.96 60.34-3.56.07 1-60.38 3.57-40.63-1.96-28.25-4.43-20.35-5.47-15.08-5.85-11.44-5.92-8.83-5.84-6.92-5.73-5.45-5.62-4.3-5.5-3.4-5.46-1.4-2.9h1.1zm88.43-96.56l12.86 1.54 13.64 3.12 14.5 5 15.5 7.3 16.7 10.18 18.18 13.94 19.95 19 20.67 24.43-.76.64-20.64-24.4-19.87-18.92-18.1-13.87-16.62-10.12-15.4-7.25-14.4-4.97-13.5-3.1-12.77-1.52-12.06-.13-11.4 1.1-10.7 2.2-10 3.18-9.2 4.07-8.33 4.8-7.4 5.4-6.43 5.83-5.4 6.08-4.44 6.2-3.5 6.22-2.63 6.12-1.85 6-1.13 5.84-.5 5.68.08 2.95h-1l-.07-2.97.5-5.8 1.15-5.94 1.88-6.1 2.68-6.22 3.55-6.3 4.48-6.3 5.48-6.16 6.5-5.9 7.48-5.45 8.43-4.87 9.3-4.1 10.1-3.23 10.8-2.22 11.5-1.1z" fill="#333"/><path d="M679.95 972.4v.5l-.5.04-.05-1 .56-.04zM704.2 924.35l-12.26-8.66 7.43-5.56z" fill="#333"/><path d="M705.15 925.64l-14.06-9.94 8.52-6.37zm-12.36-9.96l10.42 7.37-4.1-12.1z" fill="#333"/><use xlink:href="#H" transform="matrix(1,0,0,1,390.3616456606926,900.2140956277319) translate(0.0049999999999954525 14.4)"/><use xlink:href="#I" transform="matrix(1,0,0,1,390.3616456606926,900.2140956277319) translate(43.855 14.4)"/><use xlink:href="#J" transform="matrix(1,0,0,1,390.3616456606926,900.2140956277319) translate(109.70500000000001 14.4)"/><path d="M992.24 853.85l4.32 4.4 2.37 2.7 1.13 1.47.55.8.3.46.15.3.1.2.05.15 1.96 5.82 2.46 8.84 1.7 8.12 1.02 7.03.47 6 .08 5.1-.22 4.4-.44 3.8-.6 3.35-.74 2.95-.84 2.64-.93 2.36-1 2.16-1.08 1.97-1.15 1.8-1.23 1.7-1.3 1.57-1.4 1.47-1.5 1.38-1.6 1.3-1.73 1.23-1.87 1.16-2.05 1.1-2.25 1.03-1.7.68-5.93 2.2-9.38 3.04-15.85 4.4-28.2 6.55-44.24 8.4-27.97 4.26-5.78.63-1.46.1-.07-1 1.45-.1 5.73-.64 27.93-4.25 44.2-8.4 28.17-6.54 15.8-4.38 9.34-3.02 5.9-2.18 1.66-.67 2.2-1 2-1.05 1.82-1.13 1.68-1.2 1.55-1.25 1.45-1.34 1.35-1.43 1.27-1.52 1.2-1.63 1.1-1.77 1.06-1.9 1-2.1.9-2.32.82-2.58.72-2.9.6-3.26.42-3.75.22-4.33-.07-5.05-.46-5.94-1-6.97-1.7-8.07-2.43-8.78-1.94-5.78-.04-.1-.07-.15-.13-.25-.25-.42-.5-.74-1.1-1.4-2.35-2.67-4.28-4.36-5.12-4.66h1.5zm-105.1-12.23l-.5.6-3.57 4.6-4.14 5.83-4.92 7.6-6 10.22-7.77 14.63-18.5 39-.9-.42 18.5-39.03 7.8-14.67 6.03-10.26 4.94-7.63 4.17-5.9 3.58-4.6 1.3-1.53zm40.82-21.73l3.38.34 3.63.6 3.92.87 4.27 1.23 4.68 1.63 5.15 2.14 3.32 1.6h-2.3l-1.43-.7-5.1-2.1-4.63-1.6-4.22-1.22-3.87-.86-3.58-.6-3.32-.33-3.1-.16-2.93.03-2.77.2-2.64.33-2.18.4-1.07.25-1.12.3-1.14.37-1.2.45-1.25.52-1.33.62-1.4.73-1.47.86-1.6 1.02-1.7 1.2-.37.3h-1.65l1.44-1.1 1.74-1.23 1.62-1.05 1.52-.88 1.43-.75 1.35-.64 1.3-.54 1.23-.46 1.2-.38 1.14-.32 1.1-.26 2.25-.4 2.68-.35 2.83-.2 3-.03zM846.4 972.9h-.53v-1h.5zM845.17 926.44l-10.78 10.43 2.6-14.77z" fill="#333"/><path d="M846 926.33l-12.37 11.97 2.98-16.97zm-10.85 9.1l9.18-8.87-6.97-3.7z" fill="#333"/><use xlink:href="#H" transform="matrix(1,0,0,1,887.1426698977734,828.3101789377204) translate(0.0049999999999954525 14.4)"/><use xlink:href="#I" transform="matrix(1,0,0,1,887.1426698977734,828.3101789377204) translate(43.855 14.4)"/><use xlink:href="#K" transform="matrix(1,0,0,1,887.1426698977734,828.3101789377204) translate(109.70500000000001 14.4)"/><path d="M758.8 1053.43l-6.36 24.36-3.68 27.45-.28 23.05 2.14 19.5 3.9 16.53 5.13 14 6 11.72 6.56 9.7 6.84 7.85 3.16 2.86h-1.5l-2.38-2.15-6.9-7.94-6.63-9.8-6.07-11.84-5.18-14.1-3.9-16.66-2.17-19.6.28-23.18 3.7-27.6 6.36-24.4zm75.84 31.83l14.27 37.18 6.4 25.6 2.26 18.27v13.52l-1.23 10.26-1.97 8-2.4 6.35-2.72 5.13-.62.9h-1.2l.97-1.4 2.63-5.05 2.38-6.23 1.95-7.87 1.22-10.14v-13.38l-2.26-18.17-6.34-25.45-14.23-37.08-29.75-56.02.88-.47zM804.87 1029.2l-.88.46-.28-.5.6-.26.32-.15zM762.9 1054.14l-8.9-2.6 8.46-12.4z" fill="#333"/><path d="M763.4 1054.8l-10.2-3 9.72-14.2zm-8.6-3.56l7.57 2.23-.37-12.77z" fill="#333"/><use xlink:href="#H" transform="matrix(1,0,0,1,715.3345645807254,1210.4568306513227) translate(0.0049999999999954525 14.4)"/><use xlink:href="#L" transform="matrix(1,0,0,1,715.3345645807254,1210.4568306513227) translate(43.855 14.4)"/><use xlink:href="#M" transform="matrix(1,0,0,1,715.3345645807254,1210.4568306513227) translate(97.805 14.4)"/><path d="M795.93 190.86l3.92 1.4 3.24 1.44 2.72 1.45 2.32 1.48 2 1.5 1.75 1.5 1.52 1.55 1.36 1.6 1.2 1.63 1.07 1.72.94 1.8.82 1.9.7 2.04.6 2.2.44 2.4.3 2.7.1 3-.12 3.42-.45 4-.9 4.7-1.53 5.73-2.5 7.15-3.8 8.74-.9-.4 3.78-8.7 2.47-7.08 1.5-5.66.88-4.64.45-3.9.12-3.37-.1-2.93-.3-2.6-.44-2.34-.56-2.13-.7-1.96-.78-1.85-.92-1.73-1.03-1.65-1.16-1.58-1.32-1.54-1.48-1.5-1.7-1.46-1.93-1.45-2.26-1.43-2.65-1.43-3.17-1.4-3.85-1.4-3.83-1.04h3.78zm-93.45 3.2l-4.06 3.15-3.32 3-2.7 2.84-2.23 2.67-1.8 2.52-1.44 2.38-1.15 2.24-.9 2.13-.7 2.03-.52 1.93-.35 1.86-.2 1.78-.07 1.73.05 1.7.17 1.63.28 1.6.4 1.6.5 1.55.65 1.56.78 1.55.92 1.54 1.08 1.55 1.26 1.55 1.46 1.57 1.7 1.57 2 1.58 2.3 1.58 2.67 1.57 3.14 1.55 3.66 1.5 4.3 1.4 5.1 1.24 4 .7-.15.97-4.05-.7-5.15-1.27-4.38-1.42-3.74-1.5-3.2-1.58-2.75-1.6-2.36-1.64-2.04-1.63-1.75-1.62-1.52-1.62-1.3-1.6-1.12-1.62-.96-1.6-.8-1.63-.67-1.62-.53-1.63-.42-1.66-.3-1.68-.17-1.7-.05-1.76.07-1.8.22-1.86.36-1.93.53-2 .73-2.1.94-2.18 1.2-2.3 1.47-2.45 1.84-2.57 2.26-2.73 2.76-2.88 3.38-3.05 4.1-3.2 3.7-2.5h1.8z" fill="#333"/><path d="M811.68 255.88l-.2.5-.9-.44.18-.46zM734.1 256.03l-14.58 3.53.7-9.24z" fill="#333"/><path d="M735.7 256.15l-16.73 4.06.8-10.6zm-15.63 2.76l12.4-3-11.8-4.86z" fill="#333"/><use xlink:href="#H" transform="matrix(1,0,0,1,645.6153703028738,169.16429259729767) translate(0.0049999999999954525 14.4)"/><use xlink:href="#I" transform="matrix(1,0,0,1,645.6153703028738,169.16429259729767) translate(43.855 14.4)"/><use xlink:href="#N" transform="matrix(1,0,0,1,645.6153703028738,169.16429259729767) translate(109.70500000000001 14.4)"/><path d="M1021.15 434.3l9.9 18 6.64 13.3 4.48 10.06 3.08 7.77 2.15 6.13 1.5 4.94 1.05 4.05.72 3.38.48 2.85.3 2.45.2 2.1.07 1.86v1.62l-.06 1.46-.1 1.3-.16 1.18-.18 1.06-.2.98-.24.9-.25.83-.26.77-.3.7-.3.7-.3.62-.33.6-.34.55-.35.54-.37.5-.38.5-.4.46-.42.44-.43.42-.45.4-.47.4-.5.38-.52.36-.54.35-.6.35-.6.32-.66.3-.7.3-.76.3-.8.25-.88.24-.96.23-1.04.2-1.14.15-1.27.14-1.4.08-1.1.02v-1l1.04-.02 1.36-.1 1.23-.12 1.1-.16 1-.2.9-.2.84-.24.78-.25.7-.25.67-.28.6-.3.6-.3.54-.3.5-.34.5-.34.46-.36.45-.36.42-.38.4-.4.4-.4.36-.44.35-.45.35-.46.33-.5.32-.53.3-.55.3-.6.28-.62.27-.68.25-.73.24-.8.22-.85.2-.93.17-1.03.15-1.13.1-1.26.07-1.4v-1.6l-.08-1.8-.17-2.07-.3-2.4-.5-2.8-.7-3.35-1.03-4-1.5-4.9-2.1-6.1-3.08-7.73-4.47-10.02-6.62-13.28-9.9-17.94-11.95-19.68h1.17zM918.1 321.97l2.37.16 2.24.25 2.15.33 2.07.4 2.02.5 1.97.56 1.97.64 1.95.74 1.95.84 1.98.94 2 1.07 2.06 1.2 2.13 1.36 2.2 1.54 2.3 1.77 2.42 2.03 2.57 2.35 2.77 2.75 2.98 3.23 3.3 3.86 3.64 4.66 18.74 25.98 9.56 14.38h-1.2l-9.2-13.8-18.7-25.96-3.62-4.64-3.26-3.83-2.97-3.2-2.73-2.72-2.55-2.32-2.4-2-2.27-1.75-2.16-1.5-2.08-1.36-2.03-1.18-1.97-1.04-1.94-.93-1.92-.83-1.9-.72-1.92-.64-1.94-.54-1.97-.48-2.02-.4-2.1-.32-2.2-.24-2.33-.16-2.5-.07-2.74.03-3.06.18-3.57.36-4.4.63-6.14 1.13-37.7 8.3-6.68.94-.14-1 6.64-.93 37.7-8.3 6.18-1.14 4.43-.63 3.6-.36 3.12-.17 2.8-.04z" fill="#333"/><path d="M1031.97 532.1h-.54l.02-.5v-.5h.5zM850.98 338.64l-14.52-3.74 13.94-5.52z" fill="#333"/><path d="M851.52 339.3l-16.68-4.3 16.02-6.33zm-13.45-4.5l12.37 3.18-.5-7.88z" fill="#333"/><use xlink:href="#H" transform="matrix(1,0,0,1,937.109566382999,393.51720757740554) translate(0.0049999999999954525 14.4)"/><use xlink:href="#O" transform="matrix(1,0,0,1,937.109566382999,393.51720757740554) translate(43.855 14.4)"/><path d="M454.7 360.2l-3.73 2.55-3.15 2.33-2.67 2.16-2.3 2.02-1.96 1.9-1.7 1.77-1.5 1.68-1.3 1.6-1.12 1.53-1 1.46-.87 1.4-.75 1.36-.68 1.32-.58 1.3-.8 1.9-.85 2.32-.7 2.27-.6 2.22-.47 2.17-.37 2.14-.25 2.14-.17 2.1-.07 2.1.04 2.1.12 2.1.22 2.1.3 2.12.43 2.15.54 2.2.65 2.22.76 2.28.92 2.32 1.06 2.4 1.23 2.46 1.43 2.54 1.63 2.63 1.86 2.73 2.12 2.84 2.43 2.94 2.77 3.06 3.15 3.18 3.56 3.3 4.03 3.38 4.53 3.48 5.03 3.52 5.57 3.53 6.06 3.48 6.48 3.32 6.8 3.1 6.93 2.8 6.9 2.45 6.68 2.02 6.32 1.6 5.85 1.2 5.3.86 4.78.55 4.24.3 3.26.06-.02 1-3.3-.08-4.27-.3-4.8-.54-5.36-.85-5.9-1.22-6.36-1.62-6.72-2.03-6.95-2.45-6.96-2.82-6.83-3.13-6.52-3.34-6.1-3.5-5.6-3.54-5.1-3.55-4.55-3.5-4.06-3.43-3.6-3.32-3.18-3.2-2.8-3.1-2.46-2.98-2.16-2.87-1.9-2.77-1.65-2.67-1.44-2.58-1.26-2.5-1.1-2.44-.9-2.36-.8-2.32-.66-2.26-.54-2.23-.43-2.2-.32-2.17-.22-2.16-.12-2.14-.03-2.14.08-2.14.17-2.15.27-2.16.38-2.2.48-2.2.6-2.28.72-2.32.87-2.37.8-1.93.6-1.32.7-1.36.78-1.4.9-1.45 1-1.5 1.17-1.56 1.32-1.64 1.5-1.7 1.75-1.82 2-1.92 2.3-2.04 2.7-2.2 3.2-2.35 3.17-2.16h1.84zm229.82-54.26l-9.06.5-32.44 3.12-38.85 5.34-35.12 6.3-28.13 6.27-21.72 5.8-15.64 4.9h-3.1l1.7-.6 16.76-5.25 21.76-5.82 28.17-6.28 35.16-6.3 38.9-5.35 32.48-3.12 9.08-.5z" fill="#333"/><path d="M542.34 487.27l-1.27.82.02-.86zM699.24 304.87l-14.07 5.2-.36-9.28z" fill="#333"/><path d="M700.86 304.8l-16.16 5.96-.42-10.63zm-15.22 4.55l12-4.42-12.3-3.47z" fill="#333"/><use xlink:href="#H" transform="matrix(1,0,0,1,409.60861834122954,338.1691693589716) translate(0.0049999999999954525 14.4)"/><use xlink:href="#O" transform="matrix(1,0,0,1,409.60861834122954,338.1691693589716) translate(43.855 14.4)"/><path d="M700.15 1035.4l-3.8 7.34-9.4 14.4-9.82 12.03-10.2 10.15-10.64 8.57-11.14 7.2-11.68 5.92-12.32 4.72-13 3.48-13.7 2.18-14.3.76-14.7-.74-14.67-2.28-.65-.17h6.05l9.37 1.45 14.58.74 14.2-.76 9.04-1.43h5.1v-.88l12.35-3.3 12.22-4.7 11.6-5.88 11.03-7.14 10.55-8.5 10.13-10.08 9.75-11.96 9.37-14.3 3.76-7.3zm-20.68-62.46l-75.8 5.2-43.17 7.58-26.3 7.52-17 6.85-11.53 6.1-8.1 5.43-5.83 4.9-4.32 4.43-3.23 4.1-2.43 3.86-1.8 3.67-1.3 3.53-.9 3.48-.5 3.47-.13 3.5.23 3.58.63 3.73 1.1 3.93 1.65 4.18 2.35 4.5 3.2 4.84 4.33 5.25 5.7 5.6 6.5 5.2h-1.6l-5.56-4.44-5.78-5.7-4.4-5.3-3.27-4.95-2.4-4.58-1.68-4.28-1.13-4.02-.65-3.83-.23-3.7.14-3.6.52-3.56.9-3.57 1.35-3.64 1.85-3.76 2.48-3.94 3.3-4.2 4.37-4.52 5.93-4.95 8.18-5.5 11.6-6.15 17.1-6.9 26.42-7.54 43.26-7.58 75.86-5.22z" fill="#333"/><path d="M679.95 972.4v.5l-.5.04-.06-1 .56-.04zM704.08 1036.76l-8.32-4.08 10.44-10.77z" fill="#333"/><path d="M704.48 1037.5l-9.56-4.67 12-12.37zm-7.9-4.96l7.1 3.47 1.8-12.63z" fill="#333"/><use xlink:href="#H" transform="matrix(1,0,0,1,431.855983086828,1087.366170293318) translate(0.0049999999999954525 14.4)"/><use xlink:href="#L" transform="matrix(1,0,0,1,431.855983086828,1087.366170293318) translate(43.855 14.4)"/><use xlink:href="#P" transform="matrix(1,0,0,1,431.855983086828,1087.366170293318) translate(97.805 14.4)"/><path d="M583.88 604.43l-.62 1.03-.86 1.27-.94 1.3-1.06 1.32-1.17 1.35-1.3 1.37-1.45 1.4-1.6 1.45-1.8 1.48-2.02 1.5-2.24 1.56-2.52 1.6-2.82 1.6-3.16 1.64-3.53 1.64-3.94 1.64-4.37 1.6-4.82 1.55-5.24 1.44-5.64 1.3-5.95 1.12-6.16.88-6.24.63-6.15.38-5.92.1-5.6-.13-5.2-.34-4.72-.5-4.28-.65-3.82-.74-3.4-.8-3.04-.85-2.7-.9-2.38-.88-2.12-.9-1.9-.9-1.68-.9-1.52-.87-1.36-.87-.18-.12h1.85l.2.14 1.5.86 1.64.87 1.86.88 2.08.9 2.36.87 2.65.87 3 .83 3.37.8 3.78.74 4.23.63 4.7.5 5.14.35 5.56.13 5.9-.1 6.1-.37 6.2-.62 6.1-.88 5.92-1.1 5.6-1.3 5.2-1.43 4.76-1.53 4.33-1.6 3.9-1.6 3.48-1.64 3.12-1.62 2.78-1.6 2.48-1.55 2.22-1.53 1.97-1.5 1.77-1.44 1.58-1.4 1.42-1.4 1.27-1.34 1.13-1.3 1.03-1.3.92-1.26.83-1.24.63-1zm-69.07-72.3l-2.14.05-2.7.22-2.8.38-2.87.56-2.98.74-3.07.95-3.18 1.18-3.3 1.43-3.38 1.7-3.5 1.98-3.54 2.3-3.6 2.6-3.6 2.9-3.54 3.22-3.44 3.47-3.27 3.67-3.04 3.83-2.76 3.88-2.45 3.9-2.12 3.8-1.8 3.66-1.48 3.5-1.2 3.3-.92 3.1-.7 2.9-.5 2.7-.3 2.5-.2 2.32-.03 2.17.08 2.02.14 1.56h-1l-.14-1.5-.08-2.07.05-2.22.17-2.37.33-2.56.5-2.74.72-2.95.94-3.15 1.22-3.35 1.5-3.55 1.82-3.72 2.15-3.85 2.47-3.92 2.8-3.94 3.07-3.87 3.3-3.72 3.5-3.5 3.58-3.25 3.64-2.95 3.63-2.63 3.6-2.32 3.52-2 3.44-1.72 3.33-1.45 3.23-1.2 3.12-.96 3.02-.76 2.93-.56 2.84-.4 2.76-.22 2.18-.06z" fill="#333"/><path d="M515.3 531.6v.5l-.5.02-.03-1h.54zM588 605.13l-8.93-2.5 8.3-12.5z" fill="#333"/><path d="M588.53 605.8l-10.25-2.87 9.52-14.35zm-8.66-3.46l7.6 2.12-.53-12.76z" fill="#333"/><use xlink:href="#H" transform="matrix(1,0,0,1,361.0226443799953,604.606418141917) translate(0.0049999999999954525 14.4)"/><use xlink:href="#I" transform="matrix(1,0,0,1,361.0226443799953,604.606418141917) translate(43.855 14.4)"/><use xlink:href="#N" transform="matrix(1,0,0,1,361.0226443799953,604.606418141917) translate(109.70500000000001 14.4)"/><path d="M214.9 802.75l-4.35 20.84-3.36 20.23-2.43 19.6-1.54 18.9-.7 18.23.04 17.53.76 16.85 1.4 16.22 1.93 16.9 8.02 57.38 8.53 46.64 8.58 37.85 8.34 30.77 7.95 25.12 7.48 20.6 7 17.03 6.53 14.14 6.08 11.85 5.66 9.98 5.28 8.46 4.94 7.22 4.63 6.2 4.36 5.34 4.1 4.63 3.9 4.03 3.7 3.52 3.53 3.1 3.37 2.7 3.24 2.4 3.12 2.1 3 1.85 2.92 1.64 2.84 1.43 2.78 1.26 2.7 1.1 2.68.95 2.63.8 2.6.7 2.57.57 2.56.45 2.56.34 2.56.23 2.56.13 2.6.02 2.6-.1 2.65-.2 2.7-.32 2.75-.45 2.82-.57 2.88-.72 2.98-.88 3.08-1.05 3.2-1.24 2.9-1.27.4.92-2.9 1.26-3.25 1.27-3.12 1.06-3 .9-2.94.72-2.87.6-2.8.44-2.72.32-2.68.2-2.66.1-2.62-.02-2.6-.13-2.6-.24-2.6-.34-2.6-.47-2.63-.58-2.63-.7-2.67-.82-2.7-.97-2.76-1.1-2.8-1.3-2.9-1.44-2.95-1.65-3.06-1.88-3.15-2.14-3.28-2.4-3.4-2.75-3.56-3.1-3.73-3.56-3.92-4.07-4.13-4.66-4.4-5.37-4.64-6.23-4.97-7.26-5.3-8.5-5.68-10-6.1-11.9-6.54-14.17-7.02-17.06-7.5-20.64-7.96-25.16-8.35-30.8-8.57-37.9-8.53-46.7-8.03-57.4-1.92-16.93-1.42-16.25-.75-16.9-.06-17.58.72-18.26 1.53-18.95 2.43-19.64 3.37-20.3 4.37-20.87 4.42-17.45h1.04zm262.12-313.7l4.02.25 3.9.4 3.8.55 3.74.7 3.66.84 3.6 1 3.55 1.13 3.5 1.3 2.92 1.2-.4.93-2.9-1.2-3.46-1.3-3.5-1.12-3.56-.98-3.62-.83-3.7-.7-3.76-.54-3.86-.4-3.98-.24-4.1-.08-4.2.1-4.4.3-4.54.5-4.74.7-4.95.96-5.18 1.24-5.44 1.54-5.73 1.88-6.04 2.27-6.38 2.7-6.76 3.2-7.17 3.8-7.62 4.43-8.1 5.17-8.6 6.02-9.12 6.96-9.65 8.05-10.2 9.25-10.7 10.55-11.15 11.96L320.67 585l-11.77 14.95-11.87 16.45-11.78 17.85-11.5 19.12-11 20.18-10.34 21-9.5 21.53-8.57 21.82-7.53 21.86-1.12 3.72h-1.04l1.2-4.03 7.56-21.9 8.58-21.86 9.52-21.58 10.36-21.03 11.03-20.23 11.5-19.15 11.8-17.9 11.9-16.47 11.8-14.98 11.55-13.47 11.18-12 10.74-10.57 10.22-9.27 9.7-8.08 9.14-7 8.64-6.04 8.13-5.2 7.66-4.45 7.2-3.8 6.8-3.24 6.43-2.72 6.07-2.3 5.77-1.88 5.48-1.55 5.22-1.23 5-.97 4.77-.72 4.6-.5 4.42-.3 4.27-.1z" fill="#333"/><path d="M391.75 1294.1l.02.53-.3.12-.4-.92.7-.3zM522.48 503.94l-14.75-2.74 4.43-8.15z" fill="#333"/><path d="M523.9 504.7l-16.94-3.14 5.1-9.35zm-15.4-3.87l12.56 2.34-8.8-9.27z" fill="#333"/><use xlink:href="#Q" transform="matrix(1,0,0,1,153.06113564304383,763.4793640010577) translate(0.0049999999999954525 14.4)"/><use xlink:href="#R" transform="matrix(1,0,0,1,153.06113564304383,763.4793640010577) translate(61.905 14.4)"/><path d="M929.17 584.07l-.9 3.07-.72 3.32-.47 3.16-.25 3.02-.05 2.9.15 2.8.32 2.74.5 2.68.67 2.63.86 2.6 1.04 2.57 1.25 2.56 1.46 2.56 1.7 2.54 1.93 2.55 2.22 2.53 2.52 2.52 2.85 2.5 3.18 2.42 2.17 1.45h-1.8l-.95-.63-3.24-2.48-2.88-2.54-2.57-2.57-2.26-2.58-2-2.6-1.73-2.6-1.5-2.62-1.26-2.63-1.06-2.64-.88-2.66-.7-2.7-.5-2.73-.33-2.8-.15-2.88.05-2.97.25-3.1.5-3.22.73-3.4.9-3.1zm106-10.87l1.5 2.4 1.3 2.4 1.15 2.4.98 2.43.84 2.43.68 2.46.54 2.48.4 2.5.26 2.53.1 2.56-.03 2.58-.2 2.62-.34 2.64-.5 2.66-.67 2.68-.85 2.68-1 2.7-1.18 2.66-1.35 2.64-1.53 2.6-1.7 2.53-1.85 2.46-2 2.36-2.15 2.26-2.27 2.14-1.43 1.2h-1.56l2.32-1.95 2.24-2.1 2.1-2.2 1.97-2.34 1.82-2.4 1.65-2.5 1.5-2.55 1.32-2.6 1.15-2.6 1-2.64.8-2.63.66-2.6.5-2.62.32-2.6.2-2.54.02-2.54-.1-2.5-.25-2.47-.4-2.45-.52-2.42-.67-2.4-.8-2.38-.98-2.37-1.12-2.35-1.3-2.34-1.45-2.34-1.4-1.95.83-.57z" fill="#333"/><path d="M928.83 583.45l.47.15-.14.5-.96-.3.16-.53zM1036.33 567.94l-6.6 6.52-6.73-13.4z" fill="#333"/><path d="M1037.17 567.8l-7.56 7.5-7.74-15.4zm-7.3 5.82l5.62-5.55-11.36-5.86z" fill="#333"/><use xlink:href="#H" transform="matrix(1,0,0,1,911.7709297513319,637.2162989975166) translate(0.0049999999999954525 14.4)"/><use xlink:href="#I" transform="matrix(1,0,0,1,911.7709297513319,637.2162989975166) translate(43.855 14.4)"/><use xlink:href="#N" transform="matrix(1,0,0,1,911.7709297513319,637.2162989975166) translate(109.70500000000001 14.4)"/><path d="M1257.47 661.5l-1.9 12.68-2.53 13.1-3.22 13.6-3.96 14.05-4.78 14.6-5.66 15.1-6.63 15.65-7.67 16.17-8.76 16.67-9.93 17.1-11.14 17.46-12.35 17.67-13.52 17.74-14.62 17.58-15.56 17.2-16.32 16.6-16.82 15.72-17.02 14.64-16.96 13.38-16.6 12-16.06 10.63-15.3 9.23-14.45 7.9-13.52 6.7-12.6 5.57-11.68 4.6-10.8 3.73-9.98 3-9.22 2.34-8.52 1.8-7.9 1.32-7.3.9-6.8.56-6.33.25h-5.92l-5.54-.25-5.2-.45-4.9-.63-4.64-.8-4.38-.93-4.17-1.1-3.96-1.2-3.78-1.33-3.63-1.44-3.48-1.56-3.34-1.67-3.22-1.78-3.1-1.9-3.03-2-2.93-2.15-2.44-1.95.62-.78 2.43 1.94 2.9 2.1 2.97 2 3.1 1.87 3.17 1.77 3.3 1.65 3.45 1.54 3.6 1.44 3.74 1.3 3.92 1.2 4.13 1.07 4.35.95 4.6.78 4.85.63 5.16.44 5.5.24h5.87l6.3-.24 6.74-.55 7.28-.9 7.84-1.32 8.47-1.78 9.18-2.34 9.94-2.97 10.75-3.72 11.64-4.58 12.55-5.56 13.5-6.66 14.4-7.9 15.28-9.2 16-10.6 16.6-11.98 16.9-13.36 17-14.6 16.8-15.7 16.28-16.55 15.55-17.18 14.6-17.55 13.5-17.7 12.32-17.65 11.1-17.4 9.92-17.08 8.74-16.63 7.64-16.13 6.6-15.6 5.65-15.08 4.77-14.56 3.95-14.03 3.2-13.52 2.54-13.07 1.88-12.62.95-8.77h1zM934.82 270.34l7.38.37 7.9.73 8.43 1.15 9.04 1.6 9.66 2.15 10.3 2.75 11 3.42 11.66 4.18 12.3 5 12.95 5.9 13.48 6.84 13.92 7.8 14.24 8.8 14.4 9.76 14.4 10.65 14.2 11.46 13.87 12.17 13.36 12.77 12.75 13.24 12.02 13.58 11.23 13.82 10.4 13.93 9.53 14 8.7 13.94 7.84 13.86 7.03 13.74 6.25 13.58 5.5 13.4 4.8 13.24 4.12 13.05 3.47 12.88 2.87 12.7 2.28 12.56 1.73 12.4 1.18 12.3.66 12.16.14 9.58-.12 5.23h-1l.12-5.23-.15-9.53-.67-12.14-1.18-12.24-1.72-12.37-2.27-12.5-2.86-12.67-3.46-12.84-4.1-13.02-4.8-13.2-5.48-13.36-6.23-13.54-7-13.7-7.84-13.83-8.67-13.9-9.52-13.96-10.36-13.9-11.2-13.8-12-13.54-12.7-13.2-13.35-12.75-13.85-12.14-14.18-11.44-14.36-10.63-14.35-9.73-14.2-8.78-13.9-7.8-13.43-6.82-12.9-5.88-12.28-5-11.63-4.15-10.94-3.4L977 277.3l-9.63-2.13-9-1.6-8.4-1.14-7.84-.73-7.34-.37-6.87-.06-6.43.2-6.04.46-5.67.67-5.36.85-5.04 1.03-4.78 1.18-4.52 1.32-4.3 1.46-4.1 1.58-3.9 1.7-3.73 1.8-3.58 1.94-3.44 2.03-3.3 2.15-3.18 2.27-2.55 1.98-.62-.8 2.58-1.98 3.2-2.3 3.35-2.17 3.47-2.06 3.6-1.96 3.78-1.83 3.95-1.7 4.13-1.6 4.34-1.47 4.56-1.34 4.82-1.2 5.08-1.03 5.4-.86 5.7-.66 6.08-.46 6.47-.22z" fill="#333"/><path d="M834 1006.85l-.6.78-.43-.33.64-.77zM860.57 297.2l-13.52 6.5 7.12-13.22z" fill="#333"/><path d="M861.4 297.34l-15.52 7.46 8.18-15.16zm-13.18 5.23l11.52-5.53-5.45-5.7z" fill="#333"/><g><use xlink:href="#S" transform="matrix(1,0,0,1,1184.8530059477619,631.0073775192105) translate(0.0049999999999954525 14.4)"/><use xlink:href="#E" transform="matrix(1,0,0,1,1184.8530059477619,631.0073775192105) translate(92.955 14.4)"/></g><path d="M707.57 835.64L713.1 861l5.86 22.3 4.4 14.28-.95.3-4.4-14.3-5.87-22.35-5.54-25.4-13.14-84.4h1.02zM643.2 589.4l7.63 13.7 6.75 13.38 6.02 13.32 5.43 13.48 4.95 13.97 4.6 14.9 4.37 16.66 4.38 20.16 3.6 20.88h-1l-3.58-20.7-4.38-20.1-4.35-16.6-4.58-14.87-4.95-13.93-5.42-13.45-6-13.28-6.73-13.36-7.62-13.66-8.45-13.76.85-.52z" fill="#333"/><path d="M634.74 575.63l-.85.52-.28-.43.84-.54zM727.47 911.76l-8.84-12.12 8.8-2.88z" fill="#333"/><path d="M727.97 913.3l-10.15-13.92 10.12-3.3zm-8.53-13.4l7.53 10.32-.02-12.77z" fill="#333"/><g><use xlink:href="#T" transform="matrix(1,0,0,1,638.4142616181439,729.8423855653642) translate(0.005000000000002558 14.4)"/><use xlink:href="#E" transform="matrix(1,0,0,1,638.4142616181439,729.8423855653642) translate(52.855000000000004 14.4)"/></g><path d="M414.68 826.56l-12.43 21.3-11.05 20.9-9.72 20.4-8.45 19.84-7.26 19.2-6.13 18.6-5.1 17.9-4.13 17.28-3.25 16.64-2.44 16.03-1.7 15.44-1 14.88-.37 14.37.23 13.9.78 13.42 1.3 13.02 1.8 12.63 2.3 12.28 2.75 11.97 3.2 11.67 3.63 11.4 4.1 11.18 4.55 10.96 5 10.77 5.5 10.6 5.97 10.48 6.5 10.34 7.04 10.24 7.63 10.16 7.95 9.7-.77.64-7.96-9.72-7.66-10.2-7.07-10.26-6.5-10.38-6-10.5-5.5-10.65-5.04-10.82-4.56-11-4.1-11.2-3.67-11.45-3.2-11.7-2.77-12.02-2.3-12.3-1.8-12.7-1.32-13.05-.78-13.47-.23-13.93.37-14.4 1-14.95 1.72-15.48 2.45-16.07 3.26-16.68 4.15-17.3 5.1-17.97 6.15-18.62 7.27-19.26 8.46-19.87 9.74-20.44 11.07-20.93 12.46-21.33 2.96-4.63h1.18zm455.4-294.03l-6.75.26-17.14 1.35-17.6 2.14-18.1 2.97-18.62 3.87-19.14 4.82-19.66 5.84-20.2 6.93-20.68 8.1-21.15 9.3-21.56 10.57-16.97 9.23-.3-.55-.53-.7-1.68-1.2-1.98-.3-2 .6-.68.5-1.2 1.68-.3 1.97.76 2.47-19.1 11.46-22.2 14.6-22.12 15.9-21.87 17.2-21.44 18.32-20.8 19.36-20 20.22-18.97 20.88-17.84 21.36-16.57 21.6-11.6 16.5h-1.2l12-17.08 16.58-21.65 17.87-21.38 19-20.93 20.02-20.25 20.83-19.38 21.47-18.36 21.9-17.2 22.15-15.95L624.98 613l18.45-11.05-.6-1.94.4-2.43 1.4-2 .95-.7 2.4-.73 2.42.4 2 1.4.5.66 16.13-8.78 21.6-10.6 21.2-9.33 20.72-8.1 20.22-6.95 19.7-5.85 19.18-4.84 18.65-3.87 18.14-3 17.65-2.15 17.17-1.36 6.76-.27z" fill="#333"/><path d="M412.2 1254.45l-.76.65-.34-.4.78-.65zM884.8 531.65l-14.13 5-.24-9.26z" fill="#333"/><path d="M886.43 531.6l-16.24 5.76-.3-10.65zm-15.28 4.35l12.04-4.26-12.25-3.64z" fill="#333"/><g><use xlink:href="#Q" transform="matrix(1,0,0,1,355.4347798274076,799.8135828968069) translate(0.0049999999999954525 14.4)"/><use xlink:href="#R" transform="matrix(1,0,0,1,355.4347798274076,799.8135828968069) translate(61.905 14.4)"/></g><path d="M825.54 743.5l-11.17 88.88-4.4 23.55-4.6 19.94L800.4 894l-.83 2.55-.95-.3.8-2.54 5-18.07 4.58-19.9 4.38-23.5 11.17-88.85.24-1.64h1zm76.4-176l-7.94 8.16-7.42 8.28-6.67 8.13-6.04 8.02-5.52 8-5.07 8.04-4.68 8.16-4.34 8.36-4.05 8.67-3.78 9.1-3.57 9.73-3.4 10.6-3.26 11.86-3.22 13.9-3.3 17.74-.83 5.88h-1l.84-6.04 3.3-17.77 3.22-13.96 3.27-11.9 3.4-10.64 3.6-9.75 3.8-9.15 4.06-8.7 4.36-8.4 4.7-8.2 5.08-8.1 5.55-8.02 6.07-8.05 6.7-8.16 7.44-8.32 7.97-8.2z" fill="#333"/><path d="M902.3 567.14l-.36.36-.72-.7.37-.38zM803.36 898.3l-8.8 12.15-.03-15z" fill="#333"/><path d="M804.16 898.03L794.06 912l-.03-17.24zm-9.1 10.88l7.5-10.34-7.53-2.43z" fill="#333"/><g><use xlink:href="#T" transform="matrix(1,0,0,1,772.9426696566467,720.1375646225324) translate(0.005000000000002558 14.4)"/><use xlink:href="#E" transform="matrix(1,0,0,1,772.9426696566467,720.1375646225324) translate(52.855000000000004 14.4)"/></g><path d="M641.7 1270.2l-8.8 4.14-8.97 3.77-9.13 3.4-9.28 3.02-9.42 2.63-9.55 2.24-9.7 1.84-9.8 1.45-9.97 1.04-10.08.63-9.7.2-.03-1 9.7-.2 10.03-.63 9.9-1.04 9.8-1.44 9.64-1.84 9.52-2.24 9.37-2.62 9.24-3 9.1-3.38 8.92-3.75 8.76-4.13 4.94-2.58h2.15zm73.63-57.5l-3.94 4.56-6.73 7.16-7.02 6.87-7.3 6.56-7.53 6.24-1.35 1.02h-1.65l2.38-1.8 7.5-6.22 7.27-6.54 6.98-6.84 6.7-7.13 4.68-5.44zm56.38-158.5v10.18l-.42 10.08-.83 9.98-1.25 9.9-1.66 9.76-2.05 9.67-2.46 9.55-2.84 9.42-3.24 9.28-3.6 9.14-4 8.97-4.38 8.8-4.74 8.62-5.1 8.4-5.43 8.2-5.77 7.96-6.1 7.72-.56.64h-1.32l1.1-1.28 6.08-7.67 5.76-7.92 5.4-8.16 5.08-8.37 4.7-8.58 4.36-8.76 3.98-8.93 3.6-9.1 3.22-9.24 2.84-9.38 2.44-9.5 2.04-9.63 1.65-9.74 1.25-9.84.84-9.94.4-10.04v-10.13l-.02-.53 1-.04z" fill="#333"/><path d="M537.3 1294.58h-.54v-1h.52zM775.78 1052.93l-9.25.5 3.83-14.5z" fill="#333"/><path d="M776.5 1053.4l-10.63.58 4.4-16.65zm-9.3-.5l7.87-.43-4.62-11.9z" fill="#333"/><g><use xlink:href="#U" transform="matrix(1,0,0,1,598.6474519927775,1245.122057382829) translate(0.0049999999999954525 14.4)"/><use xlink:href="#R" transform="matrix(1,0,0,1,598.6474519927775,1245.122057382829) translate(57.955 14.4)"/></g><path d="M841.7 1046.84l17.33 20.36 14.4 15.54 12.2 12.1 10.5 9.57 9.16 7.7 8.1 6.23 7.26 5.1 6.56 4.23 5.98 3.5 5.5 2.92 5.1 2.43 4.73 2.04 4.46 1.7 4.2 1.38 4 1.14 3.8.92 3.66.72 3.53.55 3.42.38 3.34.23 3.26.08 3.2-.05 3.2-.2 3.14-.3 3.14-.45 3.15-.58 3.17-.72 3.22-.88 3.27-1.04 2.02-.74v1.06l-1.7.6-3.3 1.07-3.26.9-3.2.72-3.2.6-3.18.44-3.2.3-3.2.2-3.27.04-3.3-.1-3.37-.22-3.47-.38-3.57-.55-3.7-.74-3.87-.93-4.03-1.15-4.25-1.4-4.5-1.7-4.78-2.06-5.12-2.45-5.54-2.93-6-3.53-6.6-4.23-7.3-5.13-8.13-6.27-9.2-7.7-10.54-9.6-12.22-12.14-14.4-15.56-17.4-20.4-21.1-27 .8-.63zm11.87-42.6l63.64 2.07 40.78 3.06 27.74 3.25 19.75 3.17 14.6 2.97 11.1 2.75 8.65 2.53 6.9 2.33 5.57 2.16 4.58 2 3.82 1.85 3.22 1.74 2.75 1.64 2.35 1.54 2.04 1.45 1.78 1.4 1.55 1.3 1.37 1.28 1.2 1.23 1.1 1.18.95 1.16.87 1.1.76 1.1.7 1.07.6 1.05.56 1.04.5 1.03.43 1.02.4 1.02.33 1 .3 1.04.24 1.03.2 1.04.18 1.07.12 1.08.08 1.1.03 1.12-.02 1.16-.05 1.2-.12 1.24-.2 1.3-.23 1.34-.32 1.43-.4 1.5-.5 1.6-.63 1.7-.75 1.8-.9 1.98-1.1 2.15-1.34 2.35-1.63 2.6-2 2.9-2.45 3.3-3.1 3.8-3.94 4.44-5.2 5.37-7.17 6.84-6.26 5.55-3.07 2.5h-1.58l4-3.27 6.25-5.52 7.15-6.8 5.16-5.34 3.92-4.4 3.07-3.77 2.43-3.27 1.96-2.87 1.6-2.57 1.3-2.32 1.1-2.1.88-1.94.74-1.78.6-1.66.5-1.55.38-1.46.32-1.4.24-1.3.17-1.25.12-1.2.06-1.15.03-1.12-.03-1.1-.08-1.04-.1-1.04-.17-1-.2-1.02-.24-1-.28-.97-.32-.97-.38-.98-.42-1-.48-.98-.53-1-.6-1.02-.67-1.03-.75-1.06-.83-1.08-.94-1.1-1.04-1.16-1.2-1.2-1.33-1.23-1.53-1.3-1.74-1.37-2-1.43-2.32-1.5-2.7-1.62-3.2-1.72-3.78-1.84-4.55-1.98-5.53-2.14-6.85-2.32-8.62-2.52-11.06-2.74-14.55-2.96-19.72-3.16-27.7-3.24-40.73-3.05-63.6-2.06-2.12-.02v-1z" fill="#333"/><path d="M820.6 1019.85l-.8.62-.32-.42.8-.6zM850.9 1009.36l-14.23-4.76 14.3-4.5z" fill="#333"/><path d="M851.4 1010.05l-16.35-5.47 16.43-5.18zm-13.1-5.44l12.1 4.06.07-7.9z" fill="#333"/><g><use xlink:href="#V" transform="matrix(1,0,0,1,1009.7219771782509,1121.206710341997) translate(0.004999999999999005 14.4)"/></g><path d="M536.66 197.88c0 15.93-12.87 28.8-28.8 28.8-15.94 0-28.82-12.87-28.82-28.8 0-15.93 12.88-28.8 28.8-28.8 15.95 0 28.82 12.87 28.82 28.8z" stroke="#333" fill="#333"/><path d="M537.66 197.9l8.58.18 8.3.52 7.72.8 7.26 1.08 6.9 1.32 6.7 1.57 6.52 1.82 6.5 2.1 6.56 2.44 6.76 2.85 7.16 3.36 7.85 4.1 9.15 5.3 12.04 7.67 50.47 35.35" stroke="#333" fill="none"/><path d="M537.68 197.4l-.02 1h-.54l.04-.5v-.3l-.02-.2z" fill="#333"/><path d="M708.23 276.85l-14.35-4.4 5.32-7.58z" stroke="#333" fill="#333"/><path d="M1151.35 173.6c0 16.2-13.1 29.3-29.28 29.3s-29.3-13.1-29.3-29.3c0-16.16 13.12-29.27 29.3-29.27 16.17 0 29.28 13.1 29.28 29.28z" stroke="#c92d39" stroke-width="5" fill="#333"/><path d="M1073.9 174.32l-37.76.47-28.46 1.5-19.7 1.88-15.57 2.16-13.1 2.4-11.47 2.57-10.28 2.78-9.4 2.97-8.7 3.16-8.2 3.37-7.78 3.58-7.46 3.82-7.2 4.1-7.03 4.37-6.9 4.7-6.82 5.1-6.78 5.52-6.8 6-6.85 6.6-6.95 7.3-7.1 8.1-7 8.67-.77-.63 7-8.7 7.14-8.12 6.97-7.3 6.9-6.64 6.82-6.05 6.82-5.55 6.85-5.12 6.92-4.73 7.07-4.4 7.23-4.1 7.5-3.85 7.82-3.6 8.23-3.38 8.76-3.17 9.43-2.98 10.32-2.78 11.5-2.6 13.15-2.38 15.62-2.17 19.74-1.9 28.5-1.5 37.8-.48z" fill="#333"/><path d="M826.6 265.42l-.35.42-.38-.33-.4-.3.34-.4zM1088.67 173.63l-14.2 4.82-.13-9.27z" fill="#333"/><path d="M1090.28 173.6l-16.3 5.54-.15-10.64zm-15.33 4.15l12.1-4.1-12.2-3.8z" fill="#333"/><defs><path fill="#fff" d="M176-78C186 10 51 31 16-35c-5-9-9-19-11-32l52-8c4 21 12 37 35 38 23 0 32-16 32-40v-130H75v-41h101v170" id="W"/><path fill="#fff" d="M85 4C-2 5 27-109 22-190h50c7 57-23 150 33 157 60-5 35-97 40-157h50l1 190h-47c-2-12 1-28-3-38-12 25-28 42-61 42" id="X"/><path fill="#fff" d="M185-48c-13 30-37 53-82 52C43 2 14-33 14-96s30-98 90-98c62 0 83 45 84 108H66c0 31 8 55 39 56 18 0 30-7 34-22zm-45-69c5-46-57-63-70-21-2 6-4 13-4 21h74" id="Y"/><path fill="#fff" d="M195-6C206 82 75 100 31 46c-4-6-6-13-8-21l49-6c3 16 16 24 34 25 40 0 42-37 40-79-11 22-30 35-61 35-53 0-70-43-70-97 0-56 18-96 73-97 30 0 46 14 59 34l2-30h47zm-90-29c32 0 41-27 41-63 0-35-9-62-40-62-32 0-39 29-40 63 0 36 9 62 39 62" id="Z"/><path fill="#fff" d="M110-194c64 0 96 36 96 99 0 64-35 99-97 99-61 0-95-36-95-99 0-62 34-99 96-99zm-1 164c35 0 45-28 45-65 0-40-10-65-43-65-34 0-45 26-45 65 0 36 10 65 43 65" id="aa"/><g id="a"><use transform="matrix(0.05555555555555555,0,0,0.05555555555555555,0,0)" xlink:href="#W"/><use transform="matrix(0.05555555555555555,0,0,0.05555555555555555,11.11111111111111,0)" xlink:href="#X"/><use transform="matrix(0.05555555555555555,0,0,0.05555555555555555,23.27777777777778,0)" xlink:href="#Y"/><use transform="matrix(0.05555555555555555,0,0,0.05555555555555555,34.388888888888886,0)" xlink:href="#Z"/><use transform="matrix(0.05555555555555555,0,0,0.05555555555555555,46.55555555555555,0)" xlink:href="#aa"/></g><path fill="#fff" d="M233-177c-1 41-23 64-60 70L243 0h-38l-65-103H63V0H30v-248c88 3 205-21 203 71zM63-129c60-2 137 13 137-47 0-61-80-42-137-45v92" id="ab"/><path fill="#fff" d="M100-194c62-1 85 37 85 99 1 63-27 99-86 99S16-35 15-95c0-66 28-99 85-99zM99-20c44 1 53-31 53-75 0-43-8-75-51-75s-53 32-53 75 10 74 51 75" id="ac"/><path fill="#fff" d="M117-194c89-4 53 116 60 194h-32v-121c0-31-8-49-39-48C34-167 62-67 57 0H25l-1-190h30c1 10-1 24 2 32 11-22 29-35 61-36" id="ad"/><path fill="#fff" d="M85-194c31 0 48 13 60 33l-1-100h32l1 261h-30c-2-10 0-23-3-31C134-8 116 4 85 4 32 4 16-35 15-94c0-66 23-100 70-100zm9 24c-40 0-46 34-46 75 0 40 6 74 45 74 42 0 51-32 51-76 0-42-9-74-50-73" id="ae"/><path fill="#fff" d="M141-36C126-15 110 5 73 4 37 3 15-17 15-53c-1-64 63-63 125-63 3-35-9-54-41-54-24 1-41 7-42 31l-33-3c5-37 33-52 76-52 45 0 72 20 72 64v82c-1 20 7 32 28 27v20c-31 9-61-2-59-35zM48-53c0 20 12 33 32 33 41-3 63-29 60-74-43 2-92-5-92 41" id="af"/><g id="b"><use transform="matrix(0.04938271604938272,0,0,0.04938271604938272,0,0)" xlink:href="#ab"/><use transform="matrix(0.04938271604938272,0,0,0.04938271604938272,12.790123456790125,0)" xlink:href="#ac"/><use transform="matrix(0.04938271604938272,0,0,0.04938271604938272,22.66666666666667,0)" xlink:href="#ad"/><use transform="matrix(0.04938271604938272,0,0,0.04938271604938272,32.543209876543216,0)" xlink:href="#ae"/><use transform="matrix(0.04938271604938272,0,0,0.04938271604938272,42.41975308641976,0)" xlink:href="#af"/></g><path fill="#fff" d="M177-190C167-65 218 103 67 71c-23-6-38-20-44-43l32-5c15 47 100 32 89-28v-30C133-14 115 1 83 1 29 1 15-40 15-95c0-56 16-97 71-98 29-1 48 16 59 35 1-10 0-23 2-32h30zM94-22c36 0 50-32 50-73 0-42-14-75-50-75-39 0-46 34-46 75s6 73 46 73" id="ag"/><g id="c"><use transform="matrix(0.04938271604938272,0,0,0.04938271604938272,0,0)" xlink:href="#ag"/><use transform="matrix(0.04938271604938272,0,0,0.04938271604938272,9.876543209876544,0)" xlink:href="#af"/><use transform="matrix(0.04938271604938272,0,0,0.04938271604938272,19.75308641975309,0)" xlink:href="#ad"/><use transform="matrix(0.04938271604938272,0,0,0.04938271604938272,29.629629629629633,0)" xlink:href="#af"/><use transform="matrix(0.04938271604938272,0,0,0.04938271604938272,39.50617283950618,0)" xlink:href="#ae"/><use transform="matrix(0.04938271604938272,0,0,0.04938271604938272,49.38271604938272,0)" xlink:href="#af"/></g><path fill="#fff" d="M185-189c-5-48-123-54-124 2 14 75 158 14 163 119 3 78-121 87-175 55-17-10-28-26-33-46l33-7c5 56 141 63 141-1 0-78-155-14-162-118-5-82 145-84 179-34 5 7 8 16 11 25" id="ah"/><path fill="#fff" d="M24 0v-261h32V0H24" id="ai"/><g id="d"><use transform="matrix(0.04938271604938272,0,0,0.04938271604938272,0,0)" xlink:href="#ah"/><use transform="matrix(0.04938271604938272,0,0,0.04938271604938272,11.851851851851853,0)" xlink:href="#af"/><use transform="matrix(0.04938271604938272,0,0,0.04938271604938272,21.7283950617284,0)" xlink:href="#ai"/><use transform="matrix(0.04938271604938272,0,0,0.04938271604938272,25.629629629629633,0)" xlink:href="#af"/></g><path fill="#fff" d="M100-194c63 0 86 42 84 106H49c0 40 14 67 53 68 26 1 43-12 49-29l28 8c-11 28-37 45-77 45C44 4 14-33 15-96c1-61 26-98 85-98zm52 81c6-60-76-77-97-28-3 7-6 17-6 28h103" id="aj"/><g id="e"><use transform="matrix(0.04938271604938272,0,0,0.04938271604938272,0,0)" xlink:href="#ae"/><use transform="matrix(0.04938271604938272,0,0,0.04938271604938272,9.876543209876544,0)" xlink:href="#aj"/></g><path fill="#fff" d="M135-143c-3-34-86-38-87 0 15 53 115 12 119 90S17 21 10-45l28-5c4 36 97 45 98 0-10-56-113-15-118-90-4-57 82-63 122-42 12 7 21 19 24 35" id="ak"/><path fill="#fff" d="M115-194c55 1 70 41 70 98S169 2 115 4C84 4 66-9 55-30l1 105H24l-1-265h31l2 30c10-21 28-34 59-34zm-8 174c40 0 45-34 45-75s-6-73-45-74c-42 0-51 32-51 76 0 43 10 73 51 73" id="al"/><path fill="#fff" d="M114-163C36-179 61-72 57 0H25l-1-190h30c1 12-1 29 2 39 6-27 23-49 58-41v29" id="am"/><g id="f"><use transform="matrix(0.04938271604938272,0,0,0.04938271604938272,0,0)" xlink:href="#aj"/><use transform="matrix(0.04938271604938272,0,0,0.04938271604938272,9.876543209876544,0)" xlink:href="#ak"/><use transform="matrix(0.04938271604938272,0,0,0.04938271604938272,18.765432098765434,0)" xlink:href="#al"/><use transform="matrix(0.04938271604938272,0,0,0.04938271604938272,28.641975308641978,0)" xlink:href="#aj"/><use transform="matrix(0.04938271604938272,0,0,0.04938271604938272,38.51851851851852,0)" xlink:href="#am"/><use transform="matrix(0.04938271604938272,0,0,0.04938271604938272,44.39506172839506,0)" xlink:href="#af"/></g><path fill="#fff" d="M33 0v-248h34V0H33" id="an"/><path fill="#fff" d="M108 0H70L1-190h34L89-25l56-165h34" id="ao"/><path fill="#fff" d="M24-231v-30h32v30H24zM24 0v-190h32V0H24" id="ap"/><path fill="#fff" d="M59-47c-2 24 18 29 38 22v24C64 9 27 4 27-40v-127H5v-23h24l9-43h21v43h35v23H59v120" id="aq"/><g id="g"><use transform="matrix(0.04938271604938272,0,0,0.04938271604938272,0,0)" xlink:href="#an"/><use transform="matrix(0.04938271604938272,0,0,0.04938271604938272,4.938271604938272,0)" xlink:href="#ad"/><use transform="matrix(0.04938271604938272,0,0,0.04938271604938272,14.814814814814817,0)" xlink:href="#ao"/><use transform="matrix(0.04938271604938272,0,0,0.04938271604938272,23.703703703703706,0)" xlink:href="#ap"/><use transform="matrix(0.04938271604938272,0,0,0.04938271604938272,27.60493827160494,0)" xlink:href="#aq"/><use transform="matrix(0.04938271604938272,0,0,0.04938271604938272,32.543209876543216,0)" xlink:href="#af"/><use transform="matrix(0.04938271604938272,0,0,0.04938271604938272,42.41975308641976,0)" xlink:href="#ae"/><use transform="matrix(0.04938271604938272,0,0,0.04938271604938272,52.2962962962963,0)" xlink:href="#ac"/></g><g id="h"><use transform="matrix(0.04938271604938272,0,0,0.04938271604938272,0,0)" xlink:href="#aj"/><use transform="matrix(0.04938271604938272,0,0,0.04938271604938272,9.876543209876544,0)" xlink:href="#ak"/><use transform="matrix(0.04938271604938272,0,0,0.04938271604938272,18.765432098765434,0)" xlink:href="#al"/><use transform="matrix(0.04938271604938272,0,0,0.04938271604938272,28.641975308641978,0)" xlink:href="#aj"/><use transform="matrix(0.04938271604938272,0,0,0.04938271604938272,38.51851851851852,0)" xlink:href="#am"/><use transform="matrix(0.04938271604938272,0,0,0.04938271604938272,44.39506172839506,0)" xlink:href="#af"/></g><path fill="#fff" d="M205 0l-28-72H64L36 0H1l101-248h38L239 0h-34zm-38-99l-47-123c-12 45-31 82-46 123h93" id="ar"/><path fill="#fff" d="M101-234c-31-9-42 10-38 44h38v23H63V0H32v-167H5v-23h27c-7-52 17-82 69-68v24" id="as"/><path fill="#fff" d="M100-194c62-1 85 37 85 99 1 63-27 99-86 99S16-35 15-95c0-66 28-99 85-99zM99-20c44 1 53-31 53-75 0-43-8-75-51-75s-53 32-53 75 10 74 51 75zM76-211c8-23 27-35 38-54h36v5l-58 49H76" id="at"/><g id="i"><use transform="matrix(0.04938271604938272,0,0,0.04938271604938272,0,0)" xlink:href="#ar"/><use transform="matrix(0.04938271604938272,0,0,0.04938271604938272,11.851851851851853,0)" xlink:href="#ad"/><use transform="matrix(0.04938271604938272,0,0,0.04938271604938272,21.7283950617284,0)" xlink:href="#as"/><use transform="matrix(0.04938271604938272,0,0,0.04938271604938272,26.666666666666668,0)" xlink:href="#ap"/><use transform="matrix(0.04938271604938272,0,0,0.04938271604938272,30.567901234567906,0)" xlink:href="#aq"/><use transform="matrix(0.04938271604938272,0,0,0.04938271604938272,35.50617283950618,0)" xlink:href="#am"/><use transform="matrix(0.04938271604938272,0,0,0.04938271604938272,41.38271604938272,0)" xlink:href="#ap"/><use transform="matrix(0.04938271604938272,0,0,0.04938271604938272,45.283950617283956,0)" xlink:href="#at"/><use transform="matrix(0.04938271604938272,0,0,0.04938271604938272,55.1604938271605,0)" xlink:href="#ad"/></g><path fill="#fff" d="M30-248c87 1 191-15 191 75 0 78-77 80-158 76V0H30v-248zm33 125c57 0 124 11 124-50 0-59-68-47-124-48v98" id="au"/><path fill="#fff" d="M141-36C126-15 110 5 73 4 37 3 15-17 15-53c-1-64 63-63 125-63 3-35-9-54-41-54-24 1-41 7-42 31l-33-3c5-37 33-52 76-52 45 0 72 20 72 64v82c-1 20 7 32 28 27v20c-31 9-61-2-59-35zM48-53c0 20 12 33 32 33 41-3 63-29 60-74-43 2-92-5-92 41zm25-158c8-23 27-35 38-54h36v5l-58 49H73" id="av"/><g id="j"><use transform="matrix(0.04938271604938272,0,0,0.04938271604938272,0,0)" xlink:href="#au"/><use transform="matrix(0.04938271604938272,0,0,0.04938271604938272,11.851851851851853,0)" xlink:href="#av"/><use transform="matrix(0.04938271604938272,0,0,0.04938271604938272,21.7283950617284,0)" xlink:href="#ag"/><use transform="matrix(0.04938271604938272,0,0,0.04938271604938272,31.60493827160494,0)" xlink:href="#ap"/><use transform="matrix(0.04938271604938272,0,0,0.04938271604938272,35.50617283950618,0)" xlink:href="#ad"/><use transform="matrix(0.04938271604938272,0,0,0.04938271604938272,45.38271604938272,0)" xlink:href="#af"/></g><path fill="#fff" d="M96-169c-40 0-48 33-48 73s9 75 48 75c24 0 41-14 43-38l32 2c-6 37-31 61-74 61-59 0-76-41-82-99-10-93 101-131 147-64 4 7 5 14 7 22l-32 3c-4-21-16-35-41-35" id="aw"/><g id="k"><use transform="matrix(0.04938271604938272,0,0,0.04938271604938272,0,0)" xlink:href="#au"/><use transform="matrix(0.04938271604938272,0,0,0.04938271604938272,11.851851851851853,0)" xlink:href="#am"/><use transform="matrix(0.04938271604938272,0,0,0.04938271604938272,17.728395061728396,0)" xlink:href="#ap"/><use transform="matrix(0.04938271604938272,0,0,0.04938271604938272,21.62962962962963,0)" xlink:href="#ad"/><use transform="matrix(0.04938271604938272,0,0,0.04938271604938272,31.506172839506174,0)" xlink:href="#aw"/><use transform="matrix(0.04938271604938272,0,0,0.04938271604938272,40.39506172839506,0)" xlink:href="#ap"/><use transform="matrix(0.04938271604938272,0,0,0.04938271604938272,44.2962962962963,0)" xlink:href="#al"/><use transform="matrix(0.04938271604938272,0,0,0.04938271604938272,54.17283950617284,0)" xlink:href="#af"/><use transform="matrix(0.04938271604938272,0,0,0.04938271604938272,64.0493827160494,0)" xlink:href="#ai"/></g><path fill="#a9afb8" d="M230 0l2-204L168 0h-37L68-204 70 0H24v-248h70l56 185 57-185h69V0h-46" id="ax"/><path fill="#a9afb8" d="M132-34C116-15 102 5 68 4 31 3 10-16 10-54c-1-60 55-63 116-61 1-26-3-47-28-47-18 1-26 9-28 27l-52-2c7-38 36-58 82-57s74 22 75 68l1 82c-1 14 12 18 25 15v27c-30 8-71 5-69-32zm-48 3c29 0 43-24 42-57-32 0-66-3-65 30 0 17 8 27 23 27zM66-208v-5l45-51h45v8l-60 48H66" id="ay"/><path fill="#a9afb8" d="M84 4C32 4 15-41 15-95c0-55 18-99 73-99 29 0 47 12 58 34l2-30h48l-1 265h-49V-32C136-9 114 4 84 4zm21-34c32 0 41-29 41-66 0-36-9-64-40-64-33 0-39 30-40 65 0 43 13 65 39 65" id="az"/><path fill="#a9afb8" d="M85 4C-2 5 27-109 22-190h50c7 57-23 150 33 157 60-5 35-97 40-157h50l1 190h-47c-2-12 1-28-3-38-12 25-28 42-61 42" id="aA"/><path fill="#a9afb8" d="M25-224v-37h50v37H25zM25 0v-190h50V0H25" id="aB"/><path fill="#a9afb8" d="M135-194c87-1 58 113 63 194h-50c-7-57 23-157-34-157-59 0-34 97-39 157H25l-1-190h47c2 12-1 28 3 38 12-26 28-41 61-42" id="aC"/><path fill="#a9afb8" d="M133-34C117-15 103 5 69 4 32 3 11-16 11-54c-1-60 55-63 116-61 1-26-3-47-28-47-18 1-26 9-28 27l-52-2c7-38 36-58 82-57s74 22 75 68l1 82c-1 14 12 18 25 15v27c-30 8-71 5-69-32zm-48 3c29 0 43-24 42-57-32 0-66-3-65 30 0 17 8 27 23 27" id="aD"/><g id="l"><use transform="matrix(0.0728395061728395,0,0,0.0728395061728395,0,0)" xlink:href="#ax"/><use transform="matrix(0.0728395061728395,0,0,0.0728395061728395,21.77901234567901,0)" xlink:href="#ay"/><use transform="matrix(0.0728395061728395,0,0,0.0728395061728395,36.34691358024691,0)" xlink:href="#az"/><use transform="matrix(0.0728395061728395,0,0,0.0728395061728395,52.29876543209876,0)" xlink:href="#aA"/><use transform="matrix(0.0728395061728395,0,0,0.0728395061728395,68.25061728395062,0)" xlink:href="#aB"/><use transform="matrix(0.0728395061728395,0,0,0.0728395061728395,75.53456790123457,0)" xlink:href="#aC"/><use transform="matrix(0.0728395061728395,0,0,0.0728395061728395,91.48641975308642,0)" xlink:href="#aD"/></g><path fill="#a9afb8" d="M88-194c31-1 46 15 58 34l-1-101h50l1 261h-48c-2-10 0-23-3-31C134-8 116 4 84 4 32 4 16-41 15-95c0-56 19-97 73-99zm17 164c33 0 40-30 41-66 1-37-9-64-41-64s-38 30-39 65c0 43 13 65 39 65" id="aE"/><path fill="#a9afb8" d="M185-48c-13 30-37 53-82 52C43 2 14-33 14-96s30-98 90-98c62 0 83 45 84 108H66c0 31 8 55 39 56 18 0 30-7 34-22zm-45-69c5-46-57-63-70-21-2 6-4 13-4 21h74" id="aF"/><g id="m"><use transform="matrix(0.0728395061728395,0,0,0.0728395061728395,0,0)" xlink:href="#aE"/><use transform="matrix(0.0728395061728395,0,0,0.0728395061728395,15.95185185185185,0)" xlink:href="#aF"/></g><path fill="#a9afb8" d="M137-138c1-29-70-34-71-4 15 46 118 7 119 86 1 83-164 76-172 9l43-7c4 19 20 25 44 25 33 8 57-30 24-41C81-84 22-81 20-136c-2-80 154-74 161-7" id="aG"/><path fill="#a9afb8" d="M115-3C79 11 28 4 28-45v-112H4v-33h27l15-45h31v45h36v33H77v99c-1 23 16 31 38 25v30" id="aH"/><path fill="#a9afb8" d="M110-194c64 0 96 36 96 99 0 64-35 99-97 99-61 0-95-36-95-99 0-62 34-99 96-99zm-1 164c35 0 45-28 45-65 0-40-10-65-43-65-34 0-45 26-45 65 0 36 10 65 43 65" id="aI"/><g id="n"><use transform="matrix(0.0728395061728395,0,0,0.0728395061728395,0,0)" xlink:href="#aF"/><use transform="matrix(0.0728395061728395,0,0,0.0728395061728395,14.5679012345679,0)" xlink:href="#aG"/><use transform="matrix(0.0728395061728395,0,0,0.0728395061728395,29.1358024691358,0)" xlink:href="#aH"/><use transform="matrix(0.0728395061728395,0,0,0.0728395061728395,37.803703703703704,0)" xlink:href="#aD"/><use transform="matrix(0.0728395061728395,0,0,0.0728395061728395,52.3716049382716,0)" xlink:href="#aE"/><use transform="matrix(0.0728395061728395,0,0,0.0728395061728395,68.32345679012346,0)" xlink:href="#aI"/><use transform="matrix(0.0728395061728395,0,0,0.0728395061728395,84.2753086419753,0)" xlink:href="#aG"/></g><path fill="#a9afb8" d="M14-72v-43h91v43H14" id="aJ"/><use transform="matrix(0.0728395061728395,0,0,0.0728395061728395,0,0)" xlink:href="#aJ" id="o"/><path fill="#a9afb8" d="M195 0l-88-114-31 24V0H24v-248h52v113l112-113h60L142-143 257 0h-62" id="aK"/><path fill="#a9afb8" d="M220-157c-53 9-28 100-34 157h-49v-107c1-27-5-49-29-50C55-147 81-57 75 0H25l-1-190h47c2 12-1 28 3 38 10-53 101-56 108 0 13-22 24-43 59-42 82 1 51 116 57 194h-49v-107c-1-25-5-48-29-50" id="aL"/><path fill="#a9afb8" d="M12 0v-35l95-120H19v-35h142v35L67-36h103V0H12" id="aM"/><g id="p"><use transform="matrix(0.0728395061728395,0,0,0.0728395061728395,0,0)" xlink:href="#aK"/><use transform="matrix(0.0728395061728395,0,0,0.0728395061728395,18.86543209876543,0)" xlink:href="#aD"/><use transform="matrix(0.0728395061728395,0,0,0.0728395061728395,33.43333333333333,0)" xlink:href="#aH"/><use transform="matrix(0.0728395061728395,0,0,0.0728395061728395,42.10123456790124,0)" xlink:href="#aD"/><use transform="matrix(0.0728395061728395,0,0,0.0728395061728395,56.66913580246913,0)" xlink:href="#aL"/><use transform="matrix(0.0728395061728395,0,0,0.0728395061728395,79.97777777777777,0)" xlink:href="#aI"/><use transform="matrix(0.0728395061728395,0,0,0.0728395061728395,95.92962962962963,0)" xlink:href="#aH"/><use transform="matrix(0.0728395061728395,0,0,0.0728395061728395,104.59753086419755,0)" xlink:href="#aM"/><use transform="matrix(0.0728395061728395,0,0,0.0728395061728395,117.70864197530865,0)" xlink:href="#aD"/></g><path fill="#a9afb8" d="M212-179c-10-28-35-45-73-45-59 0-87 40-87 99 0 60 29 101 89 101 43 0 62-24 78-52l27 14C228-24 195 4 139 4 59 4 22-46 18-125c-6-104 99-153 187-111 19 9 31 26 39 46" id="aN"/><path fill="#a9afb8" d="M141-36C126-15 110 5 73 4 37 3 15-17 15-53c-1-64 63-63 125-63 3-35-9-54-41-54-24 1-41 7-42 31l-33-3c5-37 33-52 76-52 45 0 72 20 72 64v82c-1 20 7 32 28 27v20c-31 9-61-2-59-35zM48-53c0 20 12 33 32 33 41-3 63-29 60-74-43 2-92-5-92 41" id="aO"/><path fill="#a9afb8" d="M135-143c-3-34-86-38-87 0 15 53 115 12 119 90S17 21 10-45l28-5c4 36 97 45 98 0-10-56-113-15-118-90-4-57 82-63 122-42 12 7 21 19 24 35" id="aP"/><path fill="#a9afb8" d="M59-47c-2 24 18 29 38 22v24C64 9 27 4 27-40v-127H5v-23h24l9-43h21v43h35v23H59v120" id="aQ"/><path fill="#a9afb8" d="M24-231v-30h32v30H24zM24 0v-190h32V0H24" id="aR"/><path fill="#a9afb8" d="M24 0v-261h32V0H24" id="aS"/><path fill="#a9afb8" d="M100-194c62-1 85 37 85 99 1 63-27 99-86 99S16-35 15-95c0-66 28-99 85-99zM99-20c44 1 53-31 53-75 0-43-8-75-51-75s-53 32-53 75 10 74 51 75" id="aT"/><path fill="#a9afb8" d="M68-38c1 34 0 65-14 84H32c9-13 17-26 17-46H33v-38h35" id="aU"/><g id="r"><use transform="matrix(0.04248971193415638,0,0,0.04248971193415638,0,0)" xlink:href="#aN"/><use transform="matrix(0.04248971193415638,0,0,0.04248971193415638,11.004835390946502,0)" xlink:href="#aO"/><use transform="matrix(0.04248971193415638,0,0,0.04248971193415638,19.502777777777776,0)" xlink:href="#aP"/><use transform="matrix(0.04248971193415638,0,0,0.04248971193415638,27.150925925925925,0)" xlink:href="#aQ"/><use transform="matrix(0.04248971193415638,0,0,0.04248971193415638,31.399897119341563,0)" xlink:href="#aR"/><use transform="matrix(0.04248971193415638,0,0,0.04248971193415638,34.75658436213992,0)" xlink:href="#aS"/><use transform="matrix(0.04248971193415638,0,0,0.04248971193415638,38.11327160493827,0)" xlink:href="#aS"/><use transform="matrix(0.04248971193415638,0,0,0.04248971193415638,41.46995884773662,0)" xlink:href="#aT"/><use transform="matrix(0.04248971193415638,0,0,0.04248971193415638,49.9679012345679,0)" xlink:href="#aU"/></g><path fill="#a9afb8" d="M190 0L58-211 59 0H30v-248h39L202-35l-2-213h31V0h-41" id="aV"/><path fill="#a9afb8" d="M96-169c-40 0-48 33-48 73s9 75 48 75c24 0 41-14 43-38l32 2c-6 37-31 61-74 61-59 0-76-41-82-99-10-93 101-131 147-64 4 7 5 14 7 22l-32 3c-4-21-16-35-41-35" id="aW"/><path fill="#a9afb8" d="M100-194c63 0 86 42 84 106H49c0 40 14 67 53 68 26 1 43-12 49-29l28 8c-11 28-37 45-77 45C44 4 14-33 15-96c1-61 26-98 85-98zm52 81c6-60-76-77-97-28-3 7-6 17-6 28h103" id="aX"/><g id="s"><use transform="matrix(0.04248971193415638,0,0,0.04248971193415638,0,0)" xlink:href="#aV"/><use transform="matrix(0.04248971193415638,0,0,0.04248971193415638,11.004835390946502,0)" xlink:href="#aR"/><use transform="matrix(0.04248971193415638,0,0,0.04248971193415638,14.361522633744855,0)" xlink:href="#aW"/><use transform="matrix(0.04248971193415638,0,0,0.04248971193415638,22.009670781893004,0)" xlink:href="#aT"/><use transform="matrix(0.04248971193415638,0,0,0.04248971193415638,30.50761316872428,0)" xlink:href="#aS"/><use transform="matrix(0.04248971193415638,0,0,0.04248971193415638,33.86430041152263,0)" xlink:href="#aX"/></g><path fill="#a9afb8" d="M32 76v-337h29V76H32" id="aY"/><use transform="matrix(0.04248971193415638,0,0,0.04248971193415638,0,0)" xlink:href="#aY" id="t"/><path fill="#a9afb8" d="M63-220v92h138v28H63V0H30v-248h175v28H63" id="aZ"/><path fill="#a9afb8" d="M114-163C36-179 61-72 57 0H25l-1-190h30c1 12-1 29 2 39 6-27 23-49 58-41v29" id="ba"/><path fill="#a9afb8" d="M84 4C-5 8 30-112 23-190h32v120c0 31 7 50 39 49 72-2 45-101 50-169h31l1 190h-30c-1-10 1-25-2-33-11 22-28 36-60 37" id="bb"/><g id="u"><use transform="matrix(0.04248971193415638,0,0,0.04248971193415638,0,0)" xlink:href="#aZ"/><use transform="matrix(0.04248971193415638,0,0,0.04248971193415638,9.305246913580246,0)" xlink:href="#ba"/><use transform="matrix(0.04248971193415638,0,0,0.04248971193415638,14.361522633744855,0)" xlink:href="#bb"/><use transform="matrix(0.04248971193415638,0,0,0.04248971193415638,22.85946502057613,0)" xlink:href="#aQ"/><use transform="matrix(0.04248971193415638,0,0,0.04248971193415638,27.10843621399177,0)" xlink:href="#aT"/><use transform="matrix(0.04248971193415638,0,0,0.04248971193415638,35.60637860082304,0)" xlink:href="#aP"/><use transform="matrix(0.04248971193415638,0,0,0.04248971193415638,43.25452674897119,0)" xlink:href="#aU"/></g><path fill="#a9afb8" d="M153-248C145-148 188 4 80 4 36 3 13-21 6-62l32-5c4 25 16 42 43 43 27 0 39-20 39-49v-147H72v-28h81" id="bc"/><g id="v"><use transform="matrix(0.04248971193415638,0,0,0.04248971193415638,0,0)" xlink:href="#bc"/><use transform="matrix(0.04248971193415638,0,0,0.04248971193415638,7.648148148148148,0)" xlink:href="#aT"/><use transform="matrix(0.04248971193415638,0,0,0.04248971193415638,16.14609053497942,0)" xlink:href="#aP"/><use transform="matrix(0.04248971193415638,0,0,0.04248971193415638,23.79423868312757,0)" xlink:href="#aX"/></g><use transform="matrix(0.04248971193415638,0,0,0.04248971193415638,0,0)" xlink:href="#aY" id="w"/><path fill="#a9afb8" d="M185-189c-5-48-123-54-124 2 14 75 158 14 163 119 3 78-121 87-175 55-17-10-28-26-33-46l33-7c5 56 141 63 141-1 0-78-155-14-162-118-5-82 145-84 179-34 5 7 8 16 11 25" id="bd"/><path fill="#a9afb8" d="M115-194c55 1 70 41 70 98S169 2 115 4C84 4 66-9 55-30l1 105H24l-1-265h31l2 30c10-21 28-34 59-34zm-8 174c40 0 45-34 45-75s-6-73-45-74c-42 0-51 32-51 76 0 43 10 73 51 73" id="be"/><path fill="#a9afb8" d="M210-169c-67 3-38 105-44 169h-31v-121c0-29-5-50-35-48C34-165 62-65 56 0H25l-1-190h30c1 10-1 24 2 32 10-44 99-50 107 0 11-21 27-35 58-36 85-2 47 119 55 194h-31v-121c0-29-5-49-35-48" id="bf"/><path fill="#a9afb8" d="M115-194c53 0 69 39 70 98 0 66-23 100-70 100C84 3 66-7 56-30L54 0H23l1-261h32v101c10-23 28-34 59-34zm-8 174c40 0 45-34 45-75 0-40-5-75-45-74-42 0-51 32-51 76 0 43 10 73 51 73" id="bg"/><g id="x"><use transform="matrix(0.04248971193415638,0,0,0.04248971193415638,0,0)" xlink:href="#bd"/><use transform="matrix(0.04248971193415638,0,0,0.04248971193415638,10.19753086419753,0)" xlink:href="#aX"/><use transform="matrix(0.04248971193415638,0,0,0.04248971193415638,18.695473251028805,0)" xlink:href="#be"/><use transform="matrix(0.04248971193415638,0,0,0.04248971193415638,27.193415637860078,0)" xlink:href="#aQ"/><use transform="matrix(0.04248971193415638,0,0,0.04248971193415638,31.442386831275712,0)" xlink:href="#aX"/><use transform="matrix(0.04248971193415638,0,0,0.04248971193415638,39.94032921810699,0)" xlink:href="#bf"/><use transform="matrix(0.04248971193415638,0,0,0.04248971193415638,52.64475308641975,0)" xlink:href="#bg"/><use transform="matrix(0.04248971193415638,0,0,0.04248971193415638,61.142695473251024,0)" xlink:href="#aX"/><use transform="matrix(0.04248971193415638,0,0,0.04248971193415638,69.6406378600823,0)" xlink:href="#ba"/></g><path fill="#a9afb8" d="M126-127c33 6 58 20 58 59 0 88-139 92-164 29-3-8-5-16-6-25l32-3c6 27 21 44 54 44 32 0 52-15 52-46 0-38-36-46-79-43v-28c39 1 72-4 72-42 0-27-17-43-46-43-28 0-47 15-49 41l-32-3c6-42 35-63 81-64 48-1 79 21 79 65 0 36-21 52-52 59" id="bh"/><path fill="#a9afb8" d="M101-251c68 0 85 55 85 127S166 4 100 4C33 4 14-52 14-124c0-73 17-127 87-127zm-1 229c47 0 54-49 54-102s-4-102-53-102c-51 0-55 48-55 102 0 53 5 102 54 102" id="bi"/><g id="y"><use transform="matrix(0.04248971193415638,0,0,0.04248971193415638,0,0)" xlink:href="#bh"/><use transform="matrix(0.04248971193415638,0,0,0.04248971193415638,8.497942386831275,0)" xlink:href="#bi"/><use transform="matrix(0.04248971193415638,0,0,0.04248971193415638,16.99588477366255,0)" xlink:href="#aU"/></g><path fill="#a9afb8" d="M101-251c82-7 93 87 43 132L82-64C71-53 59-42 53-27h129V0H18c2-99 128-94 128-182 0-28-16-43-45-43s-46 15-49 41l-32-3c6-41 34-60 81-64" id="bj"/><g id="z"><use transform="matrix(0.04248971193415638,0,0,0.04248971193415638,0,0)" xlink:href="#bj"/><use transform="matrix(0.04248971193415638,0,0,0.04248971193415638,8.497942386831275,0)" xlink:href="#bi"/><use transform="matrix(0.04248971193415638,0,0,0.04248971193415638,16.99588477366255,0)" xlink:href="#bj"/><use transform="matrix(0.04248971193415638,0,0,0.04248971193415638,25.493827160493822,0)" xlink:href="#bi"/></g><path fill="#333" d="M212-179c-10-28-35-45-73-45-59 0-87 40-87 99 0 60 29 101 89 101 43 0 62-24 78-52l27 14C228-24 195 4 139 4 59 4 22-46 18-125c-6-104 99-153 187-111 19 9 31 26 39 46" id="bk"/><path fill="#333" d="M114-163C36-179 61-72 57 0H25l-1-190h30c1 12-1 29 2 39 6-27 23-49 58-41v29" id="bl"/><path fill="#333" d="M100-194c63 0 86 42 84 106H49c0 40 14 67 53 68 26 1 43-12 49-29l28 8c-11 28-37 45-77 45C44 4 14-33 15-96c1-61 26-98 85-98zm52 81c6-60-76-77-97-28-3 7-6 17-6 28h103" id="bm"/><path fill="#333" d="M141-36C126-15 110 5 73 4 37 3 15-17 15-53c-1-64 63-63 125-63 3-35-9-54-41-54-24 1-41 7-42 31l-33-3c5-37 33-52 76-52 45 0 72 20 72 64v82c-1 20 7 32 28 27v20c-31 9-61-2-59-35zM48-53c0 20 12 33 32 33 41-3 63-29 60-74-43 2-92-5-92 41" id="bn"/><g id="A"><use transform="matrix(0.05,0,0,0.05,0,0)" xlink:href="#bk"/><use transform="matrix(0.05,0,0,0.05,12.950000000000001,0)" xlink:href="#bl"/><use transform="matrix(0.05,0,0,0.05,18.900000000000002,0)" xlink:href="#bm"/><use transform="matrix(0.05,0,0,0.05,28.900000000000002,0)" xlink:href="#bn"/><use transform="matrix(0.05,0,0,0.05,38.900000000000006,0)" xlink:href="#bl"/></g><path fill="#333" d="M30-248c87 1 191-15 191 75 0 78-77 80-158 76V0H30v-248zm33 125c57 0 124 11 124-50 0-59-68-47-124-48v98" id="bo"/><path fill="#333" d="M59-47c-2 24 18 29 38 22v24C64 9 27 4 27-40v-127H5v-23h24l9-43h21v43h35v23H59v120" id="bp"/><path fill="#333" d="M24-231v-30h32v30H24zM24 0v-190h32V0H24" id="bq"/><path fill="#333" d="M85-194c31 0 48 13 60 33l-1-100h32l1 261h-30c-2-10 0-23-3-31C134-8 116 4 85 4 32 4 16-35 15-94c0-66 23-100 70-100zm9 24c-40 0-46 34-46 75 0 40 6 74 45 74 42 0 51-32 51-76 0-42-9-74-50-73" id="br"/><g id="B"><use transform="matrix(0.05,0,0,0.05,0,0)" xlink:href="#bo"/><use transform="matrix(0.05,0,0,0.05,12,0)" xlink:href="#bn"/><use transform="matrix(0.05,0,0,0.05,22,0)" xlink:href="#bl"/><use transform="matrix(0.05,0,0,0.05,27.950000000000003,0)" xlink:href="#bp"/><use transform="matrix(0.05,0,0,0.05,32.95,0)" xlink:href="#bq"/><use transform="matrix(0.05,0,0,0.05,36.900000000000006,0)" xlink:href="#br"/><use transform="matrix(0.05,0,0,0.05,46.900000000000006,0)" xlink:href="#bn"/></g><path fill="#333" d="M232-93c-1 65-40 97-104 97C67 4 28-28 28-90v-158h33c8 89-33 224 67 224 102 0 64-133 71-224h33v155" id="bs"/><path fill="#333" d="M117-194c89-4 53 116 60 194h-32v-121c0-31-8-49-39-48C34-167 62-67 57 0H25l-1-190h30c1 10-1 24 2 32 11-22 29-35 61-36" id="bt"/><path fill="#333" d="M135-143c-3-34-86-38-87 0 15 53 115 12 119 90S17 21 10-45l28-5c4 36 97 45 98 0-10-56-113-15-118-90-4-57 82-63 122-42 12 7 21 19 24 35" id="bu"/><g id="C"><use transform="matrix(0.05,0,0,0.05,0,0)" xlink:href="#bs"/><use transform="matrix(0.05,0,0,0.05,12.950000000000001,0)" xlink:href="#bt"/><use transform="matrix(0.05,0,0,0.05,22.950000000000003,0)" xlink:href="#bq"/><use transform="matrix(0.05,0,0,0.05,26.900000000000002,0)" xlink:href="#bl"/><use transform="matrix(0.05,0,0,0.05,32.85,0)" xlink:href="#bu"/><use transform="matrix(0.05,0,0,0.05,41.85,0)" xlink:href="#bm"/></g><use transform="matrix(0.05,0,0,0.05,0,0)" xlink:href="#bn" id="D"/><path fill="#333" d="M115-194c55 1 70 41 70 98S169 2 115 4C84 4 66-9 55-30l1 105H24l-1-265h31l2 30c10-21 28-34 59-34zm-8 174c40 0 45-34 45-75s-6-73-45-74c-42 0-51 32-51 76 0 43 10 73 51 73" id="bv"/><g id="E"><use transform="matrix(0.05,0,0,0.05,0,0)" xlink:href="#bv"/><use transform="matrix(0.05,0,0,0.05,10,0)" xlink:href="#bn"/><use transform="matrix(0.05,0,0,0.05,20,0)" xlink:href="#bl"/><use transform="matrix(0.05,0,0,0.05,25.950000000000003,0)" xlink:href="#bp"/><use transform="matrix(0.05,0,0,0.05,30.950000000000003,0)" xlink:href="#bq"/><use transform="matrix(0.05,0,0,0.05,34.9,0)" xlink:href="#br"/><use transform="matrix(0.05,0,0,0.05,44.9,0)" xlink:href="#bn"/></g><path fill="#333" d="M197 0v-115H63V0H30v-248h33v105h134v-105h34V0h-34" id="bw"/><path fill="#333" d="M179-190L93 31C79 59 56 82 12 73V49c39 6 53-20 64-50L1-190h34L92-34l54-156h33" id="bx"/><g id="F"><use transform="matrix(0.05,0,0,0.05,0,0)" xlink:href="#bw"/><use transform="matrix(0.05,0,0,0.05,12.950000000000001,0)" xlink:href="#bn"/><use transform="matrix(0.05,0,0,0.05,22.950000000000003,0)" xlink:href="#bx"/></g><path fill="#333" d="M177-190C167-65 218 103 67 71c-23-6-38-20-44-43l32-5c15 47 100 32 89-28v-30C133-14 115 1 83 1 29 1 15-40 15-95c0-56 16-97 71-98 29-1 48 16 59 35 1-10 0-23 2-32h30zM94-22c36 0 50-32 50-73 0-42-14-75-50-75-39 0-46 34-46 75s6 73 46 73" id="by"/><path fill="#333" d="M100-194c62-1 85 37 85 99 1 63-27 99-86 99S16-35 15-95c0-66 28-99 85-99zM99-20c44 1 53-31 53-75 0-43-8-75-51-75s-53 32-53 75 10 74 51 75" id="bz"/><g id="G"><use transform="matrix(0.05,0,0,0.05,0,0)" xlink:href="#by"/><use transform="matrix(0.05,0,0,0.05,10,0)" xlink:href="#bn"/><use transform="matrix(0.05,0,0,0.05,20,0)" xlink:href="#bt"/><use transform="matrix(0.05,0,0,0.05,30,0)" xlink:href="#bn"/><use transform="matrix(0.05,0,0,0.05,40,0)" xlink:href="#br"/><use transform="matrix(0.05,0,0,0.05,50,0)" xlink:href="#bz"/><use transform="matrix(0.05,0,0,0.05,60,0)" xlink:href="#bl"/></g><path fill="#333" d="M24 0v-261h32V0H24" id="bA"/><path fill="#333" d="M96-169c-40 0-48 33-48 73s9 75 48 75c24 0 41-14 43-38l32 2c-6 37-31 61-74 61-59 0-76-41-82-99-10-93 101-131 147-64 4 7 5 14 7 22l-32 3c-4-21-16-35-41-35" id="bB"/><path fill="#333" d="M143 0L79-87 56-68V0H24v-261h32v163l83-92h37l-77 82L181 0h-38" id="bC"/><g id="H"><use transform="matrix(0.05,0,0,0.05,0,0)" xlink:href="#bk"/><use transform="matrix(0.05,0,0,0.05,12.950000000000001,0)" xlink:href="#bA"/><use transform="matrix(0.05,0,0,0.05,16.900000000000002,0)" xlink:href="#bq"/><use transform="matrix(0.05,0,0,0.05,20.85,0)" xlink:href="#bB"/><use transform="matrix(0.05,0,0,0.05,29.85,0)" xlink:href="#bC"/></g><path fill="#333" d="M210-169c-67 3-38 105-44 169h-31v-121c0-29-5-50-35-48C34-165 62-65 56 0H25l-1-190h30c1 10-1 24 2 32 10-44 99-50 107 0 11-21 27-35 58-36 85-2 47 119 55 194h-31v-121c0-29-5-49-35-48" id="bD"/><g id="I"><use transform="matrix(0.05,0,0,0.05,0,0)" xlink:href="#bD"/><use transform="matrix(0.05,0,0,0.05,14.950000000000001,0)" xlink:href="#bz"/><use transform="matrix(0.05,0,0,0.05,24.950000000000003,0)" xlink:href="#bu"/><use transform="matrix(0.05,0,0,0.05,33.95,0)" xlink:href="#bp"/><use transform="matrix(0.05,0,0,0.05,38.95,0)" xlink:href="#bl"/><use transform="matrix(0.05,0,0,0.05,44.900000000000006,0)" xlink:href="#bn"/><use transform="matrix(0.05,0,0,0.05,54.900000000000006,0)" xlink:href="#bl"/></g><path fill="#333" d="M84 4C-5 8 30-112 23-190h32v120c0 31 7 50 39 49 72-2 45-101 50-169h31l1 190h-30c-1-10 1-25-2-33-11 22-28 36-60 37" id="bE"/><g id="J"><use transform="matrix(0.05,0,0,0.05,0,0)" xlink:href="#bn"/><use transform="matrix(0.05,0,0,0.05,10,0)" xlink:href="#bx"/><use transform="matrix(0.05,0,0,0.05,19,0)" xlink:href="#bE"/><use transform="matrix(0.05,0,0,0.05,29,0)" xlink:href="#br"/><use transform="matrix(0.05,0,0,0.05,39,0)" xlink:href="#bn"/></g><path fill="#333" d="M100-194c63 0 86 42 84 106H49c0 40 14 67 53 68 26 1 43-12 49-29l28 8c-11 28-37 45-77 45C44 4 14-33 15-96c1-61 26-98 85-98zm52 81c6-60-76-77-97-28-3 7-6 17-6 28h103zm-74-98c8-23 27-35 38-54h36v5l-58 49H78" id="bF"/><g id="K"><use transform="matrix(0.05,0,0,0.05,0,0)" xlink:href="#bB"/><use transform="matrix(0.05,0,0,0.05,9,0)" xlink:href="#bl"/><use transform="matrix(0.05,0,0,0.05,14.949999999999998,0)" xlink:href="#bF"/><use transform="matrix(0.05,0,0,0.05,24.95,0)" xlink:href="#br"/><use transform="matrix(0.05,0,0,0.05,34.95,0)" xlink:href="#bq"/><use transform="matrix(0.05,0,0,0.05,38.900000000000006,0)" xlink:href="#bp"/><use transform="matrix(0.05,0,0,0.05,43.900000000000006,0)" xlink:href="#bz"/><use transform="matrix(0.05,0,0,0.05,53.900000000000006,0)" xlink:href="#bu"/></g><path fill="#333" d="M115-194c53 0 69 39 70 98 0 66-23 100-70 100C84 3 66-7 56-30L54 0H23l1-261h32v101c10-23 28-34 59-34zm-8 174c40 0 45-34 45-75 0-40-5-75-45-74-42 0-51 32-51 76 0 43 10 73 51 73" id="bG"/><path fill="#333" d="M24-231v-30h32v30H24zM-9 49c24 4 33-6 33-30v-209h32V24c2 40-23 58-65 49V49" id="bH"/><g id="L"><use transform="matrix(0.05,0,0,0.05,0,0)" xlink:href="#bz"/><use transform="matrix(0.05,0,0,0.05,10,0)" xlink:href="#bG"/><use transform="matrix(0.05,0,0,0.05,20,0)" xlink:href="#bH"/><use transform="matrix(0.05,0,0,0.05,23.95,0)" xlink:href="#bm"/><use transform="matrix(0.05,0,0,0.05,33.95,0)" xlink:href="#bp"/><use transform="matrix(0.05,0,0,0.05,38.95,0)" xlink:href="#bz"/></g><g id="M"><use transform="matrix(0.05,0,0,0.05,0,0)" xlink:href="#bB"/><use transform="matrix(0.05,0,0,0.05,9,0)" xlink:href="#bz"/><use transform="matrix(0.05,0,0,0.05,19,0)" xlink:href="#bl"/><use transform="matrix(0.05,0,0,0.05,24.95,0)" xlink:href="#bl"/><use transform="matrix(0.05,0,0,0.05,30.899999999999995,0)" xlink:href="#bm"/><use transform="matrix(0.05,0,0,0.05,40.9,0)" xlink:href="#bB"/><use transform="matrix(0.05,0,0,0.05,49.9,0)" xlink:href="#bp"/><use transform="matrix(0.05,0,0,0.05,54.900000000000006,0)" xlink:href="#bz"/></g><g id="N"><use transform="matrix(0.05,0,0,0.05,0,0)" xlink:href="#bk"/><use transform="matrix(0.05,0,0,0.05,12.950000000000001,0)" xlink:href="#bl"/><use transform="matrix(0.05,0,0,0.05,18.900000000000002,0)" xlink:href="#bm"/><use transform="matrix(0.05,0,0,0.05,28.900000000000002,0)" xlink:href="#br"/><use transform="matrix(0.05,0,0,0.05,38.900000000000006,0)" xlink:href="#bq"/><use transform="matrix(0.05,0,0,0.05,42.85000000000001,0)" xlink:href="#bp"/><use transform="matrix(0.05,0,0,0.05,47.85000000000001,0)" xlink:href="#bz"/><use transform="matrix(0.05,0,0,0.05,57.85,0)" xlink:href="#bu"/></g><g id="O"><use transform="matrix(0.05,0,0,0.05,0,0)" xlink:href="#bn"/><use transform="matrix(0.05,0,0,0.05,10,0)" xlink:href="#bG"/><use transform="matrix(0.05,0,0,0.05,20,0)" xlink:href="#bn"/><use transform="matrix(0.05,0,0,0.05,30,0)" xlink:href="#bt"/><use transform="matrix(0.05,0,0,0.05,40,0)" xlink:href="#br"/><use transform="matrix(0.05,0,0,0.05,50,0)" xlink:href="#bz"/><use transform="matrix(0.05,0,0,0.05,60,0)" xlink:href="#bt"/><use transform="matrix(0.05,0,0,0.05,70,0)" xlink:href="#bn"/><use transform="matrix(0.05,0,0,0.05,80,0)" xlink:href="#bl"/></g><g id="P"><use transform="matrix(0.05,0,0,0.05,0,0)" xlink:href="#bq"/><use transform="matrix(0.05,0,0,0.05,3.95,0)" xlink:href="#bt"/><use transform="matrix(0.05,0,0,0.05,13.949999999999998,0)" xlink:href="#bB"/><use transform="matrix(0.05,0,0,0.05,22.95,0)" xlink:href="#bz"/><use transform="matrix(0.05,0,0,0.05,32.95,0)" xlink:href="#bl"/><use transform="matrix(0.05,0,0,0.05,38.900000000000006,0)" xlink:href="#bl"/><use transform="matrix(0.05,0,0,0.05,44.85000000000001,0)" xlink:href="#bm"/><use transform="matrix(0.05,0,0,0.05,54.85,0)" xlink:href="#bB"/><use transform="matrix(0.05,0,0,0.05,63.85,0)" xlink:href="#bp"/><use transform="matrix(0.05,0,0,0.05,68.85000000000001,0)" xlink:href="#bz"/></g><g id="Q"><use transform="matrix(0.05,0,0,0.05,0,0)" xlink:href="#bo"/><use transform="matrix(0.05,0,0,0.05,12,0)" xlink:href="#bn"/><use transform="matrix(0.05,0,0,0.05,22,0)" xlink:href="#bl"/><use transform="matrix(0.05,0,0,0.05,27.950000000000003,0)" xlink:href="#bp"/><use transform="matrix(0.05,0,0,0.05,32.95,0)" xlink:href="#bq"/><use transform="matrix(0.05,0,0,0.05,36.900000000000006,0)" xlink:href="#br"/><use transform="matrix(0.05,0,0,0.05,46.900000000000006,0)" xlink:href="#bn"/></g><path fill="#333" d="M101-234c-31-9-42 10-38 44h38v23H63V0H32v-167H5v-23h27c-7-52 17-82 69-68v24" id="bI"/><path fill="#333" d="M9 0v-24l116-142H16v-24h144v24L44-24h123V0H9" id="bJ"/><g id="R"><use transform="matrix(0.05,0,0,0.05,0,0)" xlink:href="#bI"/><use transform="matrix(0.05,0,0,0.05,5,0)" xlink:href="#bq"/><use transform="matrix(0.05,0,0,0.05,8.95,0)" xlink:href="#bt"/><use transform="matrix(0.05,0,0,0.05,18.95,0)" xlink:href="#bn"/><use transform="matrix(0.05,0,0,0.05,28.950000000000003,0)" xlink:href="#bA"/><use transform="matrix(0.05,0,0,0.05,32.9,0)" xlink:href="#bq"/><use transform="matrix(0.05,0,0,0.05,36.85,0)" xlink:href="#bJ"/><use transform="matrix(0.05,0,0,0.05,45.85,0)" xlink:href="#bn"/><use transform="matrix(0.05,0,0,0.05,55.85,0)" xlink:href="#br"/><use transform="matrix(0.05,0,0,0.05,65.85,0)" xlink:href="#bn"/></g><path fill="#333" d="M205 0l-28-72H64L36 0H1l101-248h38L239 0h-34zm-38-99l-47-123c-12 45-31 82-46 123h93" id="bK"/><g id="S"><use transform="matrix(0.05,0,0,0.05,0,0)" xlink:href="#bK"/><use transform="matrix(0.05,0,0,0.05,12,0)" xlink:href="#bG"/><use transform="matrix(0.05,0,0,0.05,22,0)" xlink:href="#bn"/><use transform="matrix(0.05,0,0,0.05,32,0)" xlink:href="#bt"/><use transform="matrix(0.05,0,0,0.05,42,0)" xlink:href="#br"/><use transform="matrix(0.05,0,0,0.05,52,0)" xlink:href="#bz"/><use transform="matrix(0.05,0,0,0.05,62,0)" xlink:href="#bt"/><use transform="matrix(0.05,0,0,0.05,72,0)" xlink:href="#bn"/><use transform="matrix(0.05,0,0,0.05,82,0)" xlink:href="#bl"/></g><path fill="#333" d="M33 0v-248h34V0H33" id="bL"/><g id="T"><use transform="matrix(0.05,0,0,0.05,0,0)" xlink:href="#bL"/><use transform="matrix(0.05,0,0,0.05,5,0)" xlink:href="#bt"/><use transform="matrix(0.05,0,0,0.05,15,0)" xlink:href="#bq"/><use transform="matrix(0.05,0,0,0.05,18.95,0)" xlink:href="#bB"/><use transform="matrix(0.05,0,0,0.05,27.950000000000003,0)" xlink:href="#bq"/><use transform="matrix(0.05,0,0,0.05,31.899999999999995,0)" xlink:href="#bn"/><use transform="matrix(0.05,0,0,0.05,41.9,0)" xlink:href="#bl"/></g><path fill="#333" d="M233-177c-1 41-23 64-60 70L243 0h-38l-65-103H63V0H30v-248c88 3 205-21 203 71zM63-129c60-2 137 13 137-47 0-61-80-42-137-45v92" id="bM"/><g id="U"><use transform="matrix(0.05,0,0,0.05,0,0)" xlink:href="#bM"/><use transform="matrix(0.05,0,0,0.05,12.950000000000001,0)" xlink:href="#bz"/><use transform="matrix(0.05,0,0,0.05,22.950000000000003,0)" xlink:href="#bt"/><use transform="matrix(0.05,0,0,0.05,32.95,0)" xlink:href="#br"/><use transform="matrix(0.05,0,0,0.05,42.95,0)" xlink:href="#bn"/></g><path fill="#333" d="M185-189c-5-48-123-54-124 2 14 75 158 14 163 119 3 78-121 87-175 55-17-10-28-26-33-46l33-7c5 56 141 63 141-1 0-78-155-14-162-118-5-82 145-84 179-34 5 7 8 16 11 25" id="bN"/><g id="V"><use transform="matrix(0.05,0,0,0.05,0,0)" xlink:href="#bN"/><use transform="matrix(0.05,0,0,0.05,12,0)" xlink:href="#bp"/><use transform="matrix(0.05,0,0,0.05,17,0)" xlink:href="#bz"/><use transform="matrix(0.05,0,0,0.05,27,0)" xlink:href="#bv"/></g></defs></g></svg>