<svg xmlns="http://www.w3.org/2000/svg" viewBox="0 0 1639 882"><defs><style>.cls-1{fill:#b4b4d6;}.cls-2{fill:#6d6e99;}</style></defs><g id="Fondo"><rect class="cls-1" width="1639" height="882"/></g><g id="Textura"><path class="cls-2" d="M300.84,0c-4,38.38-16.1,82-49.35,112.7-45.18,41.79-100.14,32.75-101.3,46.75-2,24.13,158.23,85.82,345.46,71.43,108.76-8.35,163.13-37.5,172.73-19.48C683,238.89,581.15,352.82,448.9,380.23c-96.41,20-184-11.18-187,1.3-2.19,9,42.29,29,80.52,41.56,99.28,32.75,186.27,25.81,186.69,33.74.48,9.22-117.47,8.74-129.54,52-6.72,24.06,25,41.46,18.18,55.84C402.84,596,218.61,583.29,139.81,475c-42-57.68-44.75-129.69-50.65-128.57-8.77,1.65,29,154.53-10.39,174C59.13,530.2,26,504,0,478.94V0Z"/><path class="cls-2" d="M774.87,0c19.66,9.31,49.24,27,68.83,59.45,54.55,90.29-15.38,216.68-29.87,242.86C758.25,402.77,682.72,436.77,694.35,458.16c10.17,18.69,79.35,13.84,123.38-23.38,49.87-42.17,52.26-113,61-111.69,11.73,1.79-26,123.29,27.27,177.92,54.47,55.84,190.62,28,198.7-9.09C1113,453.93,988,402.56,997,381.53c9.85-23.24,158.08,50,223.37-10.39,27.84-25.75,39.2-74.48,22.08-96.1-27.33-34.52-107.77,24.75-179.22-15.59-44.8-25.29-74.23-83.07-59.74-105.19,20.53-31.34,115.85,29.3,267.53,37.66,169.66,9.35,306-52.43,304-64.93-1.83-11.3-116.58,17.76-279.27-16.89-102.92-21.91-177.58-59.23-175.33-67.53,2.5-9.18,99.14,16.73,109.1-6.49,4.29-10-9.16-25.41-20.18-36.08Z"/><path class="cls-2" d="M1639,730.88c-39.34,11.24-78,15.55-95.3-3.89-27-30.38,13-102-2.6-110.39-12.78-6.88-34.7,44.28-87,66.23-72.5,30.43-145.32-19.64-158.44,2.6-8.25,14,19,36.26,45.45,88.31A369.77,369.77,0,0,1,1376.17,882H1639Z"/></g></svg>