<?xml version="1.0" standalone="no"?>
<!DOCTYPE svg PUBLIC "-//W3C//DTD SVG 20010904//EN"
 "http://www.w3.org/TR/2001/REC-SVG-20010904/DTD/svg10.dtd">
<svg version="1.0" xmlns="http://www.w3.org/2000/svg"
 width="293.000000pt" height="412.000000pt" viewBox="0 0 293.000000 412.000000"
 preserveAspectRatio="xMidYMid meet">

<g transform="translate(0.000000,412.000000) scale(0.100000,-0.100000)"
fill="#000000" stroke="none">
<path d="M814 3670 c-31 -12 -72 -65 -84 -108 -15 -56 -11 -161 8 -212 23 -60
68 -90 137 -90 58 0 95 21 120 70 22 43 19 69 -10 76 -36 9 -51 0 -58 -33 -11
-57 -87 -61 -108 -6 -6 16 -9 67 -7 114 2 68 7 91 22 108 37 41 96 15 96 -42
0 -25 3 -27 40 -27 36 0 40 2 40 25 0 44 -38 105 -75 121 -38 15 -89 17 -121
4z"/>
<path d="M1982 3667 c-88 -42 -97 -326 -13 -386 20 -15 45 -21 79 -21 100 0
139 73 130 241 -5 96 -24 141 -68 164 -34 17 -95 19 -128 2z m98 -73 c15 -39
13 -237 -3 -258 -22 -30 -59 -17 -70 24 -13 51 -5 223 12 243 20 25 50 21 61
-9z"/>
<path d="M2340 3670 c0 -6 -20 -25 -45 -42 -38 -27 -45 -37 -45 -65 0 -39 3
-40 41 -12 l29 20 0 -125 0 -126 -33 0 c-29 0 -33 -3 -35 -30 l-2 -30 115 0
115 0 0 30 c0 28 -3 30 -35 30 l-35 0 0 180 0 180 -35 0 c-19 0 -35 -5 -35
-10z"/>
<path d="M440 3635 c0 -34 1 -35 40 -35 l40 0 0 -170 0 -170 45 0 45 0 0 170
0 170 40 0 c39 0 40 1 40 35 l0 35 -125 0 -125 0 0 -35z"/>
<path d="M1071 3543 c0 -176 9 -220 48 -255 27 -25 39 -28 96 -28 57 0 68 3
97 29 l33 29 3 176 3 176 -35 0 -36 0 -2 -162 c-3 -160 -3 -163 -27 -174 -31
-16 -77 0 -85 29 -3 12 -6 86 -6 165 l0 142 -45 0 -45 0 1 -127z"/>
<path d="M1620 3638 c0 -18 -3 -70 -6 -114 l-7 -81 34 -5 c23 -4 37 -1 42 8
11 19 62 18 81 -2 31 -30 14 -110 -24 -114 -36 -5 -51 2 -62 26 -11 23 -16 25
-47 19 -20 -4 -38 -8 -39 -10 -2 -2 3 -19 12 -37 21 -44 63 -68 121 -68 90 0
135 47 135 140 0 57 -12 86 -44 112 -26 22 -84 23 -114 2 -22 -15 -22 -15 -22
35 l0 51 74 0 c77 0 86 5 86 51 0 18 -8 19 -110 19 l-110 0 0 -32z"/>
<path d="M1420 3420 l0 -30 61 0 c60 0 60 0 57 28 -3 26 -6 27 -60 30 l-58 3
0 -31z"/>
<path d="M430 2900 c0 -93 2 -170 4 -170 2 0 37 16 79 35 42 19 120 48 174 63
90 25 112 27 268 26 141 -1 183 -4 247 -22 159 -44 305 -116 409 -203 l47 -38
92 177 c51 97 108 205 127 240 l35 62 -741 0 -741 0 0 -170z"/>
<path d="M2040 3065 c0 -5 440 -828 446 -834 2 -2 4 185 4 417 l0 422 -225 0
c-124 0 -225 -2 -225 -5z"/>
<path d="M783 2730 c-90 -19 -182 -51 -263 -93 l-85 -43 0 -784 0 -785 198 0
198 0 90 168 c49 93 91 174 92 180 1 7 5 14 8 17 3 3 135 250 293 550 l287
545 -33 28 c-100 86 -225 154 -355 193 -75 23 -111 27 -238 30 -82 2 -169 -1
-192 -6z"/>
<path d="M1405 836 c-71 -32 -112 -126 -102 -235 8 -87 32 -137 82 -166 86
-51 176 -15 210 82 15 43 7 51 -47 52 -23 1 -28 -3 -28 -22 0 -26 -38 -67 -62
-67 -9 0 -26 12 -37 26 -18 23 -21 41 -21 126 0 92 2 101 25 123 13 14 30 25
38 25 25 0 57 -40 57 -70 0 -25 4 -30 24 -30 40 0 56 11 56 36 0 33 -33 96
-59 112 -33 20 -102 24 -136 8z"/>
<path d="M942 672 c5 -183 14 -216 64 -242 42 -23 137 -19 171 6 43 32 52 72
52 247 l1 157 -34 0 -34 0 -4 -166 c-3 -150 -5 -167 -22 -180 -27 -19 -49 -18
-77 5 -23 19 -24 25 -27 180 l-3 161 -46 0 -46 0 5 -168z"/>
<path d="M1670 630 l0 -210 45 0 45 0 0 85 c0 83 1 85 24 85 20 0 27 -11 52
-85 l29 -85 47 0 c54 0 54 -8 4 104 -14 32 -26 63 -26 68 0 6 11 23 25 40 20
24 25 40 25 85 0 49 -4 59 -34 89 l-34 34 -101 0 -101 0 0 -210z m170 130 c41
-41 10 -110 -50 -110 l-30 0 0 65 0 65 30 0 c17 0 39 -9 50 -20z"/>
</g>
</svg>
